<?xml version="1.0" encoding="utf-8"?>
<!-- Generator: Adobe Illustrator 17.1.0, SVG Export Plug-In . SVG Version: 6.00 Build 0)  -->
<!DOCTYPE svg PUBLIC "-//W3C//DTD SVG 1.1//EN" "http://www.w3.org/Graphics/SVG/1.1/DTD/svg11.dtd">
<svg version="1.1" xmlns="http://www.w3.org/2000/svg" xmlns:xlink="http://www.w3.org/1999/xlink" x="0px" y="0px"
	 viewBox="0 0 1200 1200" enable-background="new 0 0 1200 1200" xml:space="preserve">
<g id="Слой_1">
</g>
<g id="Слой_2">
	<path d="M556.5,786.2c36.4-11,74.8,10.6,84,47.3c4.9,19.3,9.1,38.8,13.6,58.2c0.2,1,0.5,2,0.7,3c0.7,3.2,1.3,6.2,5.8,5.2
		c4.6-1,3.7-4.1,2.9-7.2c-5-21.6-10-43.2-15-64.8c-21.9-94.8-43.5-189.6-65.8-284.3c-6.2-26.4,13-47.9,36.1-46.8
		c16.5,0.8,29.8,12.3,33.8,29.8c10.4,45,20.7,90,31.1,135c7.8,33.8,15.6,67.6,23.4,101.4c0.6,2.8,0.9,5.9,5.2,5.3
		c4.9-0.7,4.4-3.7,3.6-7.2c-5.6-24.2-11.2-48.4-16.8-72.6c-1.2-5.4-2.5-10.8-3.7-16.2c-3.6-16.1,4.9-29.8,20.8-33.7
		c5.8-1.4,11.6-2.9,17.4-3.9c15.1-2.6,27.9,5.9,31.5,20.8c7,29.8,13.9,59.6,20.7,89.4c0.9,4,2.4,7.2,6.8,4.5
		c1.4-0.9,2.2-4.5,1.8-6.6c-2.7-13.1-5.9-26-8.9-39c-2.5-10.8-5.1-21.6-7.5-32.4c-3.5-15.8,4.8-29.3,20.4-33.4
		c5.4-1.4,10.8-2.6,16.2-3.8c15.7-3.5,29.5,5,33.2,20.6c5.4,23,10.7,46,16,69c0.3,1.2,0.7,2.4,0.9,3.6c0.5,3.3,1.9,5.4,5.7,4.4
		c4-1,3.6-3.8,2.9-6.8c-3.3-14.4-6.6-28.8-10-43.2c-4.5-19.3,3.3-31.8,22.8-36.5c4.6-1.1,9.2-2.3,13.8-3.2
		c16-3.1,29.1,5.4,32.8,21.3c6.5,27.8,12.8,55.6,19.2,83.4c13,56.6,26.3,113.1,39.1,169.8c14.8,66-25.4,131.9-91,148.7
		c-34.4,8.8-69,16.8-103.8,24c-39.1,8.1-75.6-0.5-109.2-21.2c-50.6-31.2-81.7-77.4-96.5-134.1C578.1,886.3,568,838,556.9,790
		C556.6,788.9,556.6,787.6,556.5,786.2z"/>
	<path d="M229.1,533.1C352.8,427,476,321.4,599.8,215.3c48.1,41.2,96.1,82.4,145.4,124.6c0-5.2,0-8.8,0-12.4
		c0.3-26.3,20.5-47.4,46.3-48.2c26.9-0.9,49.2,18.3,50.2,45.2c1.1,29.1,0.6,58.4,0.2,87.5c-0.1,7.9,2.2,13.1,8.3,18.2
		c38.5,32.5,76.6,65.4,114.8,98.1c1.7,1.5,3.4,3,5.5,4.8c-6.7,7.9-13.2,15.5-19.8,23.1c-8.8,10.3-17.6,20.7-26.5,30.8
		c-1.3,1.5-3.8,3.1-5.4,2.8c-15.9-3-31,1.2-46.2,4.6c-2.5,0.6-5.9,0.3-8-1c-20.2-12.4-41.6-15.8-64.5-9.8c-1.9,0.5-3.9,0.7-6.5,1.1
		c0-3.8,0-7,0-10.3c0-20.1,0.1-40.3-0.1-60.4c0-2.5-1.1-5.9-2.9-7.4c-62.9-54.2-125.9-108.2-189-162.2c-0.5-0.4-1-0.6-1.9-1.2
		c-1.5,1.2-3.2,2.4-4.7,3.7c-61.3,52.6-122.6,105.2-184,157.6c-3.6,3-5.2,6.1-5.1,10.9c0.2,80.1,0.1,160.3,0.1,240.4
		c0,2.4,0,4.8,0,7.8c30.7,0,60.6,0,90.9,0c7.4,32.2,14.8,64,22.2,96.3c-70.2,0-139.9,0-210.1,0c0-88.8,0-177.5,0-267.7
		c-6.2,5.3-11.3,9.6-16.9,14.4C271.1,582.2,250.3,557.8,229.1,533.1z"/>
	<path d="M371.4,105.2c46,39.5,91.8,78.7,138.1,118.4C391.3,325,273.6,425.9,155.3,527.3c1.5,1.9,2.9,3.6,4.3,5.2
		c31,36.2,61.9,72.5,93,108.6c3,3.5,4.2,7,4.2,11.6c-0.2,30.2-0.1,60.4-0.1,90.6c0,2.2,0,4.4,0,7c-58.9,0-117.1,0-175.8,0
		c0-88.9,0-177.6,0-267.9c-6.3,5.2-11.5,9.5-17.3,14.3C42.8,472.3,22,448,0.7,423C124.3,317.1,247.7,211.3,371.4,105.2z"/>
	<path d="M828.3,105.2C952.1,211.4,1075.4,317.1,1199,423c-21.1,24.7-41.9,49-63,73.7c-5.4-4.6-10.6-9-16.6-14.1
		c0,89.7,0,178.4,0,267.6c-2.5,0.2-4.3,0.4-6,0.4c-33.7,0-67.4-0.1-101.1,0.1c-4.7,0-6.2-1.5-7.1-5.9c-6.6-29.4-13.7-58.8-20.2-88.2
		c-3.1-14.1-8.1-27.1-17.7-38.9c25.6-29.9,51.2-59.8,77.2-90.2c-1.8-1.6-3.4-3.1-5-4.5c-46.6-40-93.2-80-140-119.8
		c-3.7-3.1-4.9-6.3-4.9-11c0.2-21,0.3-41.9,0-62.9c-0.6-42.8-19.8-74.9-58.6-92.9c-38.3-17.9-74.8-11.8-107.8,14.6
		c-1,0.8-1.9,1.5-3.2,2.5c-11.4-9.8-22.7-19.5-34.8-29.8C736.3,184.1,782,144.9,828.3,105.2z"/>
</g>
</svg>
