<?xml version="1.0" encoding="utf-8"?>
<!-- Generator: Adobe Illustrator 17.1.0, SVG Export Plug-In . SVG Version: 6.00 Build 0)  -->
<!DOCTYPE svg PUBLIC "-//W3C//DTD SVG 1.1//EN" "http://www.w3.org/Graphics/SVG/1.1/DTD/svg11.dtd">
<svg version="1.1" id="Слой_1" xmlns="http://www.w3.org/2000/svg" xmlns:xlink="http://www.w3.org/1999/xlink" x="0px" y="0px"
	 viewBox="0 0 1200 1200" enable-background="new 0 0 1200 1200" xml:space="preserve">
<g>
	<path d="M700.3,453.1c2.1,0,3.7,0,5.3,0c113.9,0,227.8,0,341.6,0c44.2,0,81.7,28.4,93.2,70.6c10.7,39.2-5.4,82-39.4,104.3
		c-1,0.7-2,1.4-3.2,2.3c18,22.7,25.5,48.2,20.6,76.8c-4.8,28.6-20.2,50.3-44.5,66.1c20.4,25.7,27.3,54.6,18.6,86.2
		c-8.7,31.6-29.6,52.8-60,64.9c2.8,5.4,5.8,10.6,8.2,16.2c23.9,54.3-10.5,119.1-68.9,129.9c-7.1,1.3-14.4,2-21.6,2
		c-148.9,0.1-297.8,0.1-446.6,0.1c-27.5,0-50-10.6-66.5-32.8c-5.3-7.1-8-14.9-8-24.3c0.2-161.9,0.2-323.8,0.2-485.6
		c0-3.1,0.6-6.5,1.8-9.4c30.6-78.7,61.4-157.4,92-236.2c0.9-2.4,1.3-5.1,1.3-7.6c0.1-59.5,0-119,0.1-178.5c0-11.7,5.2-20.1,15.1-24
		c3-1.2,6.3-1.7,9.5-1.8c19.9-0.2,39.8-0.2,59.6,0c17.6,0.2,32.2,8.2,45.3,19.1c19.3,16,33.7,36.1,45.8,57.8
		c18.1,32.4,30.2,67,36.3,103.6c4.2,25,2.8,49.7-2.1,74.4c-8.4,41.9-20.5,82.8-33,123.5C700.8,451.2,700.6,451.8,700.3,453.1z"/>
	<path d="M381.7,762.8c0,94.6,0,189.3,0,283.9c0,12.5-6.5,21.7-17.8,24.7c-2.7,0.7-5.7,0.9-8.5,1c-69.9,0.1-139.8,0.1-209.7,0
		c-14.9,0-24-7.6-26.1-22.4c-2.7-18.9-4.8-37.9-7.2-56.8c-2.4-18.9-4.7-37.9-7.1-56.8c-2.4-18.9-4.8-37.9-7.1-56.8
		c-2.4-19.2-4.8-38.4-7.2-57.6c-2.4-18.8-4.7-37.6-7.1-56.5c-2.4-18.9-4.7-37.9-7.1-56.8c-2.7-21.3-5.3-42.6-8-63.9
		c-2.4-18.9-4.8-37.9-7.2-56.8c-2.6-21.1-5.2-42.1-7.8-63.2c-1.8-14.6-3.6-29.2-5.5-43.8c-1.9-14.2,8.5-27,22.9-27.7
		c1.4-0.1,2.7,0,4.1,0c93.1,0,186.3,0,279.4,0c17.3,0,26.9,9.6,26.9,26.9C381.7,574.2,381.7,668.5,381.7,762.8z M238.8,940.7
		c-0.4,19.6,15.1,35.7,35.1,36.3c19.4,0.6,35.8-15.3,36.4-35.1c0.5-19.5-15.2-35.7-35.1-36.3C255.7,904.9,239.3,920.9,238.8,940.7z"
		/>
</g>
</svg>
