<?xml version="1.0" encoding="utf-8"?>
<!-- Generator: Adobe Illustrator 17.1.0, SVG Export Plug-In . SVG Version: 6.00 Build 0)  -->
<!DOCTYPE svg PUBLIC "-//W3C//DTD SVG 1.1//EN" "http://www.w3.org/Graphics/SVG/1.1/DTD/svg11.dtd">
<svg version="1.1" xmlns="http://www.w3.org/2000/svg" xmlns:xlink="http://www.w3.org/1999/xlink" x="0px" y="0px"
	 viewBox="0 0 1200 1200" enable-background="new 0 0 1200 1200" xml:space="preserve">
<g id="Слой_1">
</g>
<g id="Слой_2">
	<path d="M499,689.2c31.7,24.8,61.5,47.6,90.7,71.2c7.8,6.3,12.8,6.8,20.9,0.3c35.2-28.4,71.8-55,106.1-84.4
		c17.3-14.8,32.9-17.2,53.9-10.2c54.7,18.1,108.8,36.9,159.3,65.2c42.8,24,83.1,51.4,117.6,86.1c44.4,44.6,77.6,96.1,90.7,159.2
		c4.9,23.5,10.1,46.7-1,69c-5.4,10.9-13.7,21.9-23.4,28.8c-46.5,33-99.1,53.6-152.5,72.8c-56.7,20.4-115.7,30.3-174.8,38.3
		c-91.7,12.3-183.9,15.8-276.4,8.8c-26.7-2-53.5-4-80.1-7.2c-75.2-9.2-149.5-22.4-220.2-51c-38.6-15.6-76.7-32-111.7-55.1
		c-37.2-24.5-50.6-57.8-36-100.4c10.4-30.6,19.8-62.2,35.3-90.2c23.3-42.2,57.4-76.2,95.5-106.3C235,750.4,282.8,727,330.5,703
		c8-4,11.8-0.7,14.1,6.7c11,35.9,47,53.3,78.1,51.7c30.9-1.6,62.4-23.4,70.9-56.1C494.9,700.3,496.9,695.4,499,689.2z M601.6,777.7
		c-2.8,3.3-4.5,4.4-4.9,5.9c-7.3,26.6-14.7,53.2-21.7,79.9c-11.7,44.6-23.5,89.1-34.5,133.9c-1.8,7.4-2.3,17.3,1.2,23.5
		c16.1,28.2,33.9,55.3,50.8,83c6,9.8,10.6,9.3,16.2-0.1c12.6-20.9,24-42.7,38.6-62c15.2-20.2,19.4-38,10.9-63.8
		c-17.3-52.2-29-106.2-43.3-159.3C611.2,805.5,606.4,792.6,601.6,777.7z M848,971.4C848,971.4,848,971.4,848,971.4
		c17.3,0,34.6,0.1,51.9,0c31.4-0.1,28,4.1,28.6-28.3c0.2-10.8-3.7-14.3-14.3-14.2c-39.1,0.4-78.2-0.6-117.3,0.3
		c-31.8,0.7-27.5-4.1-28.2,29c-0.2,10.4,4.1,13.4,13.8,13.2C804.3,971.1,826.1,971.4,848,971.4z"/>
	<path d="M325.9,355.1c-2.3-41.1,10.3-86.1,32.9-128.4c36.7-68.6,91.7-118.6,166.6-138.1c84.5-22,164.8-9.3,236.1,48
		c48.8,39.1,80.2,88.4,97.9,146.4c14.9,48.7,16.4,98.6,3.4,149c-12.4,48.4-33.3,92.2-66.7,128.8c-40.2,44.2-89.6,72.9-149.5,84.4
		c-67.3,12.9-129.6,0.2-186.9-33.8c-36.1-21.4-66.2-51-88.6-88.1C338.4,468.8,325.4,426.5,325.9,355.1z"/>
	<path d="M901.6,422.8c0-22.3-1.2-44.7,0.6-66.8c0.8-9.4,5.7-21.5,12.8-26.7c9.3-6.7,10.4-13.6,7.6-21.8
		C912,275.8,903,243.4,889,213.3c-20.9-45-54-81.5-93.5-111.2c-41.9-31.5-88.6-53.1-140.9-62.3c-48.3-8.4-96.2-7.6-142.8,6.7
		c-26,8-50.6,20.9-75.5,32.4c-41,18.8-72.1,50.4-99,85c-32.1,41.3-53.9,88.6-64.3,140.5c-2,9.9-1.7,17.7,8.3,25.8
		c7.4,6.1,12,19.4,12.4,29.7c1.4,39.1,1.6,78.3,0.1,117.3c-0.7,19.6,2.1,37.3,10.7,54.8c20,40.5,42.4,78.8,80,106.1
		c5.7,4.1,9.6,5.7,16.8,2.7c16.8-7,38.3-0.5,47.6,13c12.8,18.4,12.2,43.5-1.4,59.5c-11.5,13.6-34.4,17.8-51.4,8.2
		c-14.8-8.3-21.9-22-24.6-38.7c-0.9-5.7-3.4-12.6-7.6-16c-43.8-35.2-72.9-81-95.7-131.2c-3.5-7.7-6.8-10.1-14.7-10.1
		c-8,0-16.5-0.9-23.8-3.8c-15.3-6-25.5-16.6-25.4-34.7c0.2-42.3,0-84.6,0.2-126.9c0.1-18,7.1-31,25.6-37.2c3.9-1.3,7.4-8.4,8.4-13.3
		c10.8-53.8,28.4-104.8,60.1-150.3c42.2-60.5,96.9-106.7,165.3-133.2C532.2-0.4,603.3-7.9,676.4,9.1
		c54.8,12.8,103.4,35.6,147.6,70.4c49.6,39,85.8,87.9,110.6,144.8c11.7,26.7,16.1,56.6,24.4,84.8c1.6,5.3,5.3,12.5,9.7,14.1
		c17.8,6.5,24.4,20.8,24.8,36.9c1.2,42.3,0.8,84.6,0.4,126.9c-0.2,19.9-18.6,41.9-50.3,39.7c-25.3-1.8-42.3-17-42.5-41.3
		c-0.2-20.9,0-41.9,0-62.8C901.4,422.8,901.5,422.8,901.6,422.8z"/>
</g>
</svg>
