<?xml version="1.0" encoding="utf-8"?>
<!-- Generator: Adobe Illustrator 17.1.0, SVG Export Plug-In . SVG Version: 6.00 Build 0)  -->
<!DOCTYPE svg PUBLIC "-//W3C//DTD SVG 1.1//EN" "http://www.w3.org/Graphics/SVG/1.1/DTD/svg11.dtd">
<svg version="1.1" id="Слой_2" xmlns="http://www.w3.org/2000/svg" xmlns:xlink="http://www.w3.org/1999/xlink" x="0px" y="0px"
	 viewBox="0 0 1200 1200" enable-background="new 0 0 1200 1200" xml:space="preserve">
<path d="M1063.5,482.4c11.1,8.6,21.2,16.5,32,25c14-12,27.7-23.6,41.2-35.5c6-5.3,11.3-10.3,20.5-5.9c9.6,4.5,17.1,10.2,18.8,21.2
	c1.2,8.4-0.4,15.4-7.4,21.8c-74.9,68.6-149.4,137.7-224.2,206.4c-3.7,3.4-9.1,6.6-13.9,6.9c-8.4,0.6-17.7-0.5-21.7-9.7
	c-4.4-10.2-1-19.7,6.4-27.4c32-33.2,64.3-66.2,96.5-99.2c16.8-17.3,33.5-34.5,51.2-52.8c-9.3-8-18.1-15.6-27.6-23.7
	c-13,12.6-25.5,24.7-38,36.8c-40.9,39.7-81.6,79.5-122.7,119c-5.5,5.3-7.6,10.6-7.6,18.1c0.2,111.3,0.2,222.5,0.2,333.8
	c0,25.6,0.2,51.3,0,76.9c-0.3,39.5-30.1,69.1-69.6,69.1c-236.4,0-472.8,0.1-709.2,0c-42.7,0-71.8-28.9-71.9-71.4
	c-0.1-269.6,0-539.1,0-808.7c0-59.1-0.1-118.2,0-177.3c0-46.7,27.4-74.9,73.8-74.9c179.4-0.2,358.8-0.1,538.2,0.2
	c4.1,0,9.3,2.5,12.2,5.6c74.1,79.3,147.9,158.8,221.6,238.6c3,3.3,4.7,9.1,4.7,13.7c0.3,50.1,0.1,100.1,0.1,150.2c0,3.5,0,7,0,13.1
	c4.8-3.9,7.7-6.1,10.6-8.5c53.1-44.2,106.1-88.4,159.3-132.3c3.2-2.6,8.1-4.8,12.1-4.7c48.5,1.5,82.4,26.9,87.4,80.1
	c2,20.9-4.4,36.4-21,49.5C1097.8,450.3,1081.6,466.2,1063.5,482.4z M819.1,719.6c-11,10.5-20.5,18.5-28.5,27.7
	c-6.6,7.6-12.1,7.1-20.1,2.7c-42.1-23.1-71.6-58.3-95.8-98.7c-3.8-6.3-3.3-10.3,2-15.5c45.7-44.6,91.3-89.5,136.6-134.5
	c3.4-3.4,6.1-9.1,6.1-13.8c0.5-55.2,0.1-110.4,0.6-165.6c0.1-8.7-2.9-10.3-10.9-10.3c-61.5,0.3-123,0.5-184.5,0
	c-26.4-0.2-36.8-11.7-36.8-38.2c0-61.8-0.1-123.6,0.1-185.5c0-7.1-1.5-10.1-9.4-10.1c-158,0.2-316,0.1-474.1,0.3
	c-29.5,0-48.4,19.6-48.4,49.1c0,311.5,0,623,0.1,934.5c0,34.7,17.6,52.5,52.2,52.5c219.8,0,439.7,0.1,659.5,0
	c33.6,0,52-18.4,52-52.1c0-110.1-0.1-220.1-0.1-330.2C819.7,728.9,819.4,725.7,819.1,719.6z"/>
<path d="M302.9,980.5c12.7-6.7,25.5-13.1,38-20.2c23.9-13.4,46.3-12.9,67.9,5.2c5,4.2,10.9,7.7,16.9,10.1
	c9.5,3.8,15.9-3.5,15.6-13.4c-0.3-11.5-0.6-24.3,4.2-34.2c9.3-19.4,21-37.9,33.5-55.4c50.1-69.9,105.1-135.8,163-199.4
	c2.2-2.4,4.8-4.6,8.3-7.9c27.9,45.2,61.2,85.3,110.4,110.9c-20.6,19.5-39.8,38.1-59.5,56.3c-44.2,41-89.2,81.2-139.6,114.6
	c-25.9,17.2-52.5,33.3-84.3,37.8c-2.2,0.3-4.8,2.4-6,4.3c-14.6,22.8-40.7,30.2-64.6,17.6c-7.7-4-15.1-8.9-21.8-14.4
	c-7.6-6.1-14.9-6.7-23.3-2.2c-15.5,8.1-31,16.1-46.7,23.8c-4.3,2.1-9,3.7-13.6,4.7c-19.6,4.2-35.5-7-36.2-27.2
	c-0.5-12.1,1.6-24.6,4.1-36.6c3.6-17.7,9.1-35,12.8-52.7c1.1-5.4,1-14.9-1.8-16.4c-4.6-2.4-13.1-1.8-17.7,1.1
	c-10.5,6.7-22.2,13.8-28.7,23.9c-17.5,27.3-32.5,56.2-48.5,84.5c-1.6,2.9-2.7,6.1-4.1,9.1c-5.7,12.1-15.2,16.8-25.1,12.3
	c-10-4.5-13.4-14.7-7.6-26.9c10.9-22.8,21.7-45.8,34.4-67.6c9.5-16.3,20.9-31.7,33.1-46.1c12.8-15,29.8-24.5,49.5-27.7
	c33-5.4,56.2,15.1,53.1,48.4c-1.6,16.7-6.8,33-10.5,49.4c-2.5,11-5.1,21.9-7.7,32.8C301.3,979.5,302.1,980,302.9,980.5z"/>
<path d="M438,603.6c-78.1,0-156.2,0-234.3,0c-16.9,0-25.6-6.5-25.4-18.6c0.2-11.4,8.9-17.3,25.7-17.3c153.5,0,307-0.1,460.4-0.1
	c5.7,0,11.5-0.2,17.2,0.4c9.2,0.9,16,8.8,16,17.8c0,8.4-6.7,16.1-15.4,17.4c-2.1,0.3-4.2,0.3-6.3,0.3
	C596.6,603.6,517.3,603.6,438,603.6z"/>
<path d="M350.8,775.5c-48.5,0-97,0-145.5,0c-3,0-6,0.1-9-0.1c-10.4-0.8-17.9-8.3-18-17.8c-0.1-10.1,7.4-17.8,18.6-17.9
	c23.2-0.3,46.4-0.2,69.6-0.2c77.7,0,155.5,0,233.2,0.1c16.2,0,25.1,6.5,24.8,18.1c-0.2,11.5-9.3,17.9-25.4,17.9
	C449.7,775.5,400.2,775.5,350.8,775.5C350.8,775.5,350.8,775.5,350.8,775.5z"/>
<path d="M337.6,429c-45.8,0-91.6,0-137.4,0c-13.6,0-21.7-6.6-21.9-17.4c-0.2-11.2,8.2-18.4,22-18.4C291.7,393,383,393,474.3,393
	c13.8,0,22,7.2,21.8,18.6c-0.3,10.7-7.5,17.1-20.1,17.2c-35.6,0.2-71.1,0.1-106.7,0.1C358.7,429,348.2,429,337.6,429z"/>
</svg>
