<?xml version="1.0" encoding="utf-8"?>
<!-- Generator: Adobe Illustrator 17.1.0, SVG Export Plug-In . SVG Version: 6.00 Build 0)  -->
<!DOCTYPE svg PUBLIC "-//W3C//DTD SVG 1.1//EN" "http://www.w3.org/Graphics/SVG/1.1/DTD/svg11.dtd">
<svg version="1.1" id="Слой_2" xmlns="http://www.w3.org/2000/svg" xmlns:xlink="http://www.w3.org/1999/xlink" x="0px" y="0px"
	 viewBox="0 0 1200 1200" enable-background="new 0 0 1200 1200" xml:space="preserve">
<g>
	<path d="M3.7,766.2c2.2-15.4,8.9-28.6,19.2-40c13.5-14.9,29.8-23.6,50.3-23.7c10.4-0.1,20.7-1,31.1-1.1c4.2,0,6-1.5,7.1-5.5
		c7.7-26.6,16.9-52.8,31.5-76.5c11.3-18.3,23.8-35.9,36.2-53.5c3.2-4.5,3.5-7.8,0.5-12.4c-12.7-19.2-21.4-40.1-24.9-63
		c-0.5-3.2-0.8-6.5-0.8-9.7c-0.4-20.6,10.5-30.8,31.2-29.1c21.2,1.8,40.8,9.1,60.2,17c8.6,3.5,17,7.8,25.2,12.3
		c4.1,2.3,7.1,2.2,11-0.2c33-19.6,67.4-36,104.1-47.5c62.7-19.7,126.7-31.4,192.6-30.8c59.7,0.5,118.5,7.3,175.8,25.1
		c58.2,18.1,112.4,44.4,160.6,81.8c33.2,25.8,62.6,55.7,86.2,91c2.8,4.2,6,8,9.7,13c6.1-6.8,11.9-12.8,17.2-19.2
		c3.5-4.2-0.5-6.4-3.3-8.7c-11.7-9.4-24.4-17.9-34.7-28.6c-11.3-11.8-21.2-25.2-30.2-38.9c-4-6-5.8-14.5-6-21.8
		c-0.3-13.8-0.2-27.8,2.5-41.3c5.8-29.3,33.2-51,63-51.6c14.2-0.3,28.2-1.1,41.4,6.9c24.3,14.8,36.8,36.8,39.2,64.1
		c1.6,18.9,0,38.1-0.3,57.2c-0.1,5.6-0.6,11.3-1.1,18.2c3.9-1.5,6.7-2.3,9.3-3.6c18.4-9.5,35.2-21.2,50.5-35
		c6.8-6.1,14.2-10.2,23.8-8.4c10.4,1.9,16.1,8.6,19.5,18c0,3.7,0,7.3,0,11c-2.5,3.6-4.7,7.6-7.6,10.8
		c-29.2,31.8-64.9,51.7-107.6,58.9c-2.9,0.5-6.4,2.9-8,5.4c-11.4,18-24.8,34.3-40.6,48.5c-4.2,3.8-4.9,7-3.1,12.5
		c27,80.5,21.6,158.5-18.8,233.6c-16.1,30-37.6,56-59.8,81.5c-2.2,2.6-3.8,6.7-3.8,10.2c-0.3,44.2-0.1,88.3-0.4,132.5
		c-0.1,18.5-1.1,37-1.9,55.5c-0.4,8.9-5.7,14.3-14,16.3c-6.5,1.5-13.2,2.1-19.9,2.6c-8.3,0.7-16.6,0.9-24.9,1.3
		c-11.4,0-22.8,0-34.2,0c-10.1-0.7-20.2-1.3-30.4-2.1c-11.4-0.9-18.4-7.2-21-18.1c-4.2-17.4-8.3-34.8-12.1-52.3
		c-2.9-13-5.3-26.2-8-39.7c-2.8,0.8-4.9,1.5-7,2c-27.1,7.2-53.9,15.7-81.3,21.3c-50.6,10.4-102,14.3-153.7,10.8
		c-32.4-2.2-64.7-6.8-97-10.9c-6.9-0.9-10.1,0.6-13.3,7c-11.4,22.7-23.6,45-35.4,67.5c-4.3,8.2-10.7,12.2-20.1,12.3
		c-17.9,0.1-35.8,0.7-53.7,1.2c-5.7,0.2-11.3,0.6-17,1c-5.3,0-10.6,0-15.9,0c-4-0.4-8-0.9-12.1-1.3c-14.8-1.6-21.4-7.1-23.6-21.7
		c-1.5-10.2-1.9-20.7-2-31c-0.2-32.8-0.1-65.5,0-98.3c0-3.3-0.6-5.4-3.8-7.4c-35.8-21.7-71.8-43.2-107.1-65.7
		c-31.9-20.3-63.7-40.9-94.2-63.2C28,898,7.7,881.9,3.7,854.2C3.7,824.8,3.7,795.5,3.7,766.2z M212.2,509.3
		c-0.4,0.4-0.8,0.9-1.2,1.3c5.8,9.3,11.4,18.6,17.4,27.8c15.2,23.1,15.1,28.3-2.8,49.3c-16.5,19.4-32.3,39.3-44.4,61.9
		c-10.5,19.5-17.8,40.1-23.6,61.3c-5.9,21.5-23.3,36.5-44,38.1c-11.8,0.9-23.6,2.4-35.3,2.1c-9.5-0.2-16,2.8-21.7,10.2
		c-3.3,4.3-5.2,8.1-5.1,13.6c0.3,24.2,0.2,48.5,0,72.7c0,4.1,1.1,6.9,4.3,9.4c12.8,10,24.8,21.3,38.5,30
		c61.2,38.7,122.5,77.3,184.6,114.6c16.5,9.9,23.6,21.4,23.2,40.2c-0.6,34,0.2,68,0.4,102c0,2.3,0,4.7,0,7.6
		c18.8,0,36.7-0.2,54.6,0.1c4.1,0.1,6.1-1.5,7.9-4.9c12.7-24.3,25.4-48.7,38.6-72.8c7.9-14.4,14.7-17.4,30.6-13.9
		c34.4,7.6,69.2,12.7,104.4,14.7c63.1,3.7,125.3-1.4,186.2-18.6c24.2-6.8,47.8-16,71.8-23.7c12.5-4.1,25.2,2.9,28.4,15.7
		c4,15.6,7.5,31.2,10.9,46.9c4,18.6,7.7,37.3,11.5,56c18.5,0,36.5,0,55.1,0c0-3,0-5.6,0-8.2c0.2-49.9,1.1-99.8,0.4-149.7
		c-0.2-19.5,6.1-34.3,19.5-48.3c15.1-15.8,29.1-33.1,41.2-51.3c36.1-54.2,46.5-114.4,33.9-177.5c-12-60.3-44.8-109.7-90.6-149.9
		c-69.3-60.7-151.1-95.6-241.6-108.4c-57.6-8.1-115.9-9.8-174,0.5c-47,8.3-93.3,19.3-136.7,39.6c-20.2,9.5-39.8,20.5-59,31.8
		c-13,7.6-24.5,9.4-38,0.9c-12-7.5-25.4-12.8-38.2-19C217.2,510.3,214.6,509.9,212.2,509.3z M1047.3,543.6c1.2-4.1,2.4-6.4,2.5-8.7
		c0.5-19.1,1.7-38.2,0.8-57.2c-0.3-6.9-4.3-14.4-8.5-20.3c-7.4-10.3-29.2-9-35.2,1.5c-6,10.5-8.9,22.4-4.7,33.5
		C1010.5,514.3,1027.9,528.9,1047.3,543.6z"/>
	<path d="M579.2,1.2c13.2,2,26.7,3.3,39.7,6.3C685.6,23,737.3,80.1,749.2,147.6c14.3,81.2-38.4,180-139.8,199.2
		c-93.1,17.6-182.8-43.1-202.3-136.5C386,109.5,457.8,15.7,556.2,2.7c4-0.5,8-1,12-1.4C571.9,1.2,575.6,1.2,579.2,1.2z M702.8,176
		C702.7,107.5,646,50.6,578.5,50.2c-74.5-0.5-126.4,67.2-126.3,123.4c0.1,74.4,61.7,127.4,125,127.4
		C648.5,300.9,704.6,238.1,702.8,176z"/>
	<path d="M576.5,503.8c63.9-1.7,125.9,9.3,185.8,31.5c8.3,3.1,16.4,7.3,24,11.8c9.7,5.8,13,17.4,8.8,27.7
		c-4.7,11.5-13.9,17.2-25.7,13.9c-15-4.3-29.6-10.2-44.4-15c-56-18-113.5-24.4-172.1-21.9c-54,2.3-105.9,13.9-155.9,33.9
		c-2.8,1.1-5.7,2.2-8.6,3c-11.5,3.3-22.9-1.7-27.6-12c-5-10.9-2-24.6,8.4-30c13.3-6.8,27.2-12.9,41.4-17.6
		c40.1-13.1,81.3-21.7,123.4-25.3C547.9,502.8,562.2,503.8,576.5,503.8z"/>
	<path d="M252.7,749.4c-27.4-0.1-48.8-21.6-48.6-48.9c0.2-28.7,20.2-48.1,49.5-48.1c26.8,0.1,47.7,21.6,47.6,49.2
		C301,728.1,279.4,749.5,252.7,749.4z"/>
	<path d="M601.3,179.4c0,17.3,0.1,34.6-0.1,51.9c0,2.4-1.5,5.4-3.2,7.2c-7,7.2-15,12.4-25.9,10.6c-8.4-1.4-14-5.8-15.7-14
		c-1.5-7.1-2.2-14.4-2.7-21.7c-0.6-10.8-0.8-21.5-1-32.3c-0.1-4.2-1.5-6.4-6.1-7.4c-15.2-3.3-23.5-22.1-14.2-34.3
		c8.7-11.4,19-21.6,29.6-31.3c7-6.4,16.3-8.5,25.6-4c9.4,4.6,13.3,13.1,13.5,23c0.4,17.5,0.1,35,0.1,52.5
		C601.2,179.4,601.2,179.4,601.3,179.4z"/>
</g>
</svg>
