<?xml version="1.0" encoding="utf-8"?>
<!-- Generator: Adobe Illustrator 17.1.0, SVG Export Plug-In . SVG Version: 6.00 Build 0)  -->
<!DOCTYPE svg PUBLIC "-//W3C//DTD SVG 1.1//EN" "http://www.w3.org/Graphics/SVG/1.1/DTD/svg11.dtd">
<svg version="1.1" id="Слой_1" xmlns="http://www.w3.org/2000/svg" xmlns:xlink="http://www.w3.org/1999/xlink" x="0px" y="0px"
	 viewBox="0 0 1200 1200" enable-background="new 0 0 1200 1200" xml:space="preserve">
<g>
	<path d="M97.8,630.7c0-56,0-112,0-168c0.2-0.4,0.6-0.9,0.7-1.3c6.6-27.8,24.2-41.8,52.8-41.8c18.3,0,36.7,0,55,0c1.8,0,3.5,0,5.6,0
		c0-2.7,0-4.7,0-6.7c0-50.7,0-101.3-0.1-152c0-3.9,1.2-5.9,4.5-7.8c25.2-14.7,50.2-29.6,75.2-44.6c3.4-2,5.7-1.9,9,0
		c26.3,14.7,52.6,29.4,79.2,43.6c5,2.7,6.4,5.7,6.4,11.2c-0.2,50-0.1,100-0.1,150c0,1.9,0,3.9,0,5.9c40.6,0,80.7,0,121.1,0
		c0-2.3,0-4.3,0-6.3c0-50.7,0-101.3-0.1-152c0-3.9,1.2-5.9,4.5-7.8c25.3-14.8,50.5-29.7,75.6-44.8c3-1.8,5.2-1.8,8.1-0.1
		c27.2,15.2,54.4,30.2,81.8,45.1c3.3,1.8,4.3,3.8,4.3,7.4c-0.1,50.8-0.1,101.7-0.1,152.5c0,1.9,0,3.9,0,6c40.7,0,80.7,0,121.1,0
		c0-2.5,0-4.7,0-6.8c0-50.5,0-101-0.1-151.5c0-3.6,0.9-5.7,4.2-7.5c12.7-7.3,25.3-14.8,37.8-22.4c14-8.4,27.8-16.8,41.8-25.3
		c0.3,0,0.7,0,1,0c1.4,1,2.8,2.2,4.3,3c26.8,14.8,53.5,29.7,80.4,44.3c3.5,1.9,4.8,4,4.8,8.1c-0.1,50.5-0.1,100.9-0.1,151.4
		c0,2.1,0,4.2,0,6.9c2.5,0,4.3,0,6.1,0c14.5,0,29,0,43.5,0c17.3,0,34.6,0.2,52,0.2c0,56,0,112,0,168c-0.2,0.4-0.6,0.8-0.7,1.3
		c-5.8,26.7-24.5,41.7-51.8,41.7c-14.5,0-29,0-43.4,0c-1.7,0-3.5,0-5.2,0c0,26.6,0,52.5,0,79c34,0,67.5,0,101.1,0
		c0,13.3,0,26.7,0,40c-3.5,10.4-10.1,18.1-19.8,23.2c-8.1,4.2-16.7,6.7-25.8,6.9c-16.6,0.2-33.3,0.2-50,0.2c-1.8,0-3.6,0-5.9,0
		c0,2.8,0,4.9,0,7.1c0,69.6,0,139.2,0,208.8c0,3-0.1,6-0.3,9c-1.4,21.9-16.3,39.7-37.6,45c-2.6,0.6-5.1,1.2-7.7,1.9
		c-27.7,0-55.3,0-83,0c-5.2-1.5-10.8-2.3-15.7-4.6c-20.6-9.6-29.9-26.3-29.9-48.8c0.1-70.5,0-140.9,0-211.4c0-2.1,0-4.2,0-6.5
		c-40.7,0-80.8,0-121.3,0c0,2.3,0,4.3,0,6.3c0,30.8,0,61.6,0,92.5c0,41.5,0.2,83-0.2,124.4c-0.2,22.2-15.8,40.9-37.3,46.3
		c-2.9,0.7-5.8,1.3-8.7,1.9c-27.3,0-54.7,0-82,0c-2.3-0.5-4.5-1-6.8-1.5c-23.8-5.6-39.1-25.2-39.1-50.6c0-71,0-142,0-213
		c0-2.1,0-4.2,0-6.2c-40.8,0-80.8,0-121.1,0c0,2.4,0,4.4,0,6.4c0,71.2,0,142.3,0,213.5c0,25-15.5,44.6-39.2,50
		c-2.3,0.5-4.5,1-6.8,1.5c-27.3,0-54.7,0-82,0c-2.4-0.5-4.9-1-7.3-1.6c-23.5-5.6-38.7-25-38.8-49.8c-0.1-71.4,0-142.9,0-214.3
		c0-1.9,0-3.9,0-6.2c-2.6,0-4.6,0-6.5,0c-35.8,0-71.6-0.1-107.4-0.1c0-13.3,0-26.7,0-40c3.8-11.3,11.1-19.8,22.2-24.1
		c7.6-2.9,15.9-5.4,24-5.8c20.6-0.8,41.3-0.4,62-0.4c1.8,0,3.6,0,5.5,0c0-26.5,0-52.4,0-78.8C173.4,630.7,135.6,630.7,97.8,630.7z
		 M386,631c0,26.2,0,52.1,0,78.2c40.3,0,80.3,0,120.6,0c0-26.2,0-52.1,0-78.2C466.4,631,426.5,631,386,631z M681.3,631
		c0,26.2,0,52.1,0,78.2c40.3,0,80.4,0,120.7,0c0-26.2,0-52.1,0-78.2C761.7,631,721.8,631,681.3,631z M1025.9,522.1
		c0.1-14-11.1-25.2-24.9-25.1c-13.7,0.1-24.6,11.2-24.6,24.9c0,13.7,11,24.7,24.7,24.7C1014.8,546.7,1025.8,535.8,1025.9,522.1z
		 M196.1,522.2c0.1-13.9-10.7-24.8-24.6-24.9c-13.8-0.1-24.8,10.8-24.9,24.6c-0.1,13.8,10.8,24.9,24.5,24.9
		C184.9,546.8,196,535.9,196.1,522.2z"/>
</g>
</svg>
