<?xml version="1.0" encoding="utf-8"?>
<!-- Generator: Adobe Illustrator 17.1.0, SVG Export Plug-In . SVG Version: 6.00 Build 0)  -->
<!DOCTYPE svg PUBLIC "-//W3C//DTD SVG 1.1//EN" "http://www.w3.org/Graphics/SVG/1.1/DTD/svg11.dtd">
<svg version="1.1" xmlns="http://www.w3.org/2000/svg" xmlns:xlink="http://www.w3.org/1999/xlink" x="0px" y="0px"
	 viewBox="0 0 1200 1200" enable-background="new 0 0 1200 1200" xml:space="preserve">
<g id="Слой_1">
</g>
<g id="Слой_2">
	<g>
		<path d="M1.2,902.5c0-105.7,0-211.4,0-317.1c2.1-5.9,4.4-11.8,6.3-17.8c14.7-45.1,58.4-88.8,119.3-89c30.8-0.1,61.6-1.5,92.4-2.1
			c4.6-0.1,7.9-1.4,11.2-4.7c62-62.1,124.1-124,186.2-186c1.5-1.5,3.1-2.9,4.2-3.9c6.4,15.2,12.4,30.1,19.1,44.7
			c2.1,4.6,1.9,7.2-1.8,10.9c-44.6,44.3-89,88.8-133.4,133.2c-1.6,1.6-3.1,3.3-5,5.3c201.4,0,401.8,0,602.2,0c0.3-0.5,0.7-1,1-1.5
			c-2-1.5-4.1-2.7-5.8-4.4c-44.5-44.4-88.9-88.9-133.4-133.2c-3.1-3-3.7-5.3-1.8-9.4c5-10.4,9.6-21.1,13.9-31.9
			c1.9-4.7,3-9.8,5.1-16.8c2.5,3.3,3.8,5.4,5.5,7.1c62.2,62.2,124.4,124.3,186.8,186.3c2.3,2.3,6.2,3.9,9.4,4
			c24.9,0.7,49.8,0.6,74.6,1.6c15.9,0.6,32.2,0.5,47.4,4.4c41.2,10.7,70.1,36.8,86.6,76.2c3.7,8.8,6.6,17.9,9.9,26.9
			c0,69.8,0,139.6,0,209.4c-0.2,3.4-0.7,6.9-0.7,10.3c-0.3,39.8-0.4,79.6-1.1,119.3c-0.2,14.4,0,28.9-5.7,42.8
			c-16.4,39.5-45,65.8-85.2,79.7c-5.1,1.8-10.6,3.8-15.8,3.8c-327.7,0.2-655.3,0.2-983,0.1c-2,0-4.2,0.1-6-0.6
			c-19.1-6.6-37.9-14.1-53.6-27.4C23.3,1000.2,3.9,973.5,3,936.7C2.7,925.3,1.8,913.9,1.2,902.5z M417.6,830
			c0.6-0.4,1.2-0.9,1.7-1.3c5.8,6.2,11.4,12.6,17.5,18.5c31.7,31.1,63.5,62.3,95.5,93.2c7.7,7.5,18.6,8.8,27.7,4.1
			c9.8-5,14.6-13.1,14.4-24.2c-0.1-8.1-4.6-13.7-9.8-19c-34.3-34.9-68.6-69.9-102.9-104.8c-1.5-1.5-2.9-3-5-5.2
			c12.9-1.1,24.9-1.1,36.4-3.4c45-9,83.1-54.7,79.9-96.1c-0.5-6.5,0.2-13.1-0.2-19.6c-0.4-5.9-0.9-11.9-2.7-17.4
			c-13.8-41.9-52.2-70.6-96.2-71.8c-24.3-0.7-48.6,0-72.8-1.3c-13.4-0.8-23.9,2.4-31.4,13.5c-1.7,2.5-3.5,5.6-3.5,8.4
			c0,92.2,0.1,184.4,0.4,276.7c0.1,16.1,1.1,32.2,1.6,48.3c0.2,5.9,3.2,10,7.7,13.2c7.3,5.2,15.4,6.4,23.9,4
			c11.5-3.2,17.7-11.5,17.7-23.3C417.6,891.6,417.6,860.8,417.6,830z M941.8,633.3c2.7,0,4.9,0,7.1,0c26.3,0,52.6,0.1,79-0.1
			c16.5-0.1,33-0.4,49.5-1.5c4.3-0.3,9.2-3.4,12.4-6.6c7.2-7.4,9.4-16.5,5.4-26.5c-4.4-10.9-13.1-15.4-24.1-15.5
			c-52.2-0.2-104.4-0.4-156.7,0.1c-15.8,0.1-24,9.3-25.1,25.1c-0.1,2-0.2,4.1-0.3,6.1c-0.3,20.4-0.9,40.8-0.9,61.2
			c0.2,81.4,0.7,162.8,0.6,244.2c0,9.1,2,15.6,9.4,21.3c4.8,3.7,9,5.8,15.2,5.8c33.9-0.3,67.7,0,101.6-0.2c20-0.1,40-0.9,59.9-1
			c14.2-0.1,22.3-13.8,22-23.4c-0.3-12.3-5.6-23.3-20.3-24.7c-4.3-0.4-8.5-1.1-12.8-1.2c-38.1-0.4-76.3-0.7-114.4-1.1
			c-2.4,0-4.8,0-7.4,0c0-35.4,0-70.1,0-105.3c2.6,0,4.8,0,7,0c23.9,0,47.7,0,71.6,0c10.5,0,19.1-6.3,22.5-16.5
			c5.9-17.7-4.8-33-24.4-33.7c-23.4-0.9-46.9-0.9-70.4-1.2c-2.1,0-4.3,0-6.6,0C941.8,703.2,941.8,668.8,941.8,633.3z M679.8,633.3
			c15.6,0,30.4,0.1,45.3,0c29.8-0.4,59.6-0.9,89.3-1.3c8-0.1,13.4-3.9,17.4-10.5c6.8-11.3,5.9-20.4-2.9-30c-1.9-2.1-3.7-4.5-6.1-6
			c-2.3-1.6-5.2-3.3-7.9-3.3c-44.1-0.1-88.1,0-132.2,0.3c-11.6,0.1-23.2,1-34.8,1.9c-8.7,0.7-17.6,5.9-18,18
			c-0.5,15.5-1.5,31-1.6,46.5c-0.2,89.8,0,179.5-0.6,269.3c-0.1,10.7,2,19.1,10.9,25.1c2.6,1.8,6,3.5,9,3.5
			c25.1,0.3,50.2,0.3,75.3,0.1c30-0.3,60-0.7,89.9-1.5c4.7-0.1,10.4-1.7,14-4.6c11.8-10,12.2-24.7,1.8-36c-1.7-1.8-3.2-3.9-5.2-5.1
			c-2.9-1.7-6.3-3.9-9.5-3.9c-42.2-0.3-84.5-0.2-126.7-0.2c-2.4,0-4.8,0-7.3,0c0-35.4,0-70.1,0-105.3c16.3,0,32.2,0.1,48.1,0
			c11.8-0.1,23.7,0,35.4-1.2c12.9-1.3,22-14.8,19.7-27.6c-2.6-14.3-10.2-20.8-26.8-21.3c-23.2-0.8-46.5-0.8-69.7-1.2
			c-2.2,0-4.3,0-6.7,0C679.8,703.3,679.8,668.7,679.8,633.3z M158,790c2.8,0,5,0,7.2,0c23.9,0,47.7,0,71.6,0
			c10.9,0,19.5-6.3,22.8-16.8c5.6-17.6-4.9-32.6-24.3-33.4c-23.4-0.9-46.9-0.9-70.4-1.2c-2.2,0-4.3,0-6.5,0c0-35.5,0-70.2,0-105.3
			c28.4,0,56.4,0.1,84.3,0c16.1-0.1,32.2-0.6,48.3-0.9c11.9-0.2,18-7.8,21.3-18c5.2-15.8-6.5-30.9-25.3-31.1c-52-0.5-104-0.5-156,0
			c-15.9,0.1-24.1,9.2-25.3,24.9c-0.2,2-0.2,4.1-0.3,6.1c-0.3,20.4-0.9,40.8-0.9,61.2c0.2,81.8,0.9,163.6,0.5,245.5
			c-0.1,12,5.4,18,14.3,22.8c16.2,8.8,33.3,0.2,36.3-18c0.7-4,1.3-8.1,1.3-12.1c0.4-38.6,0.8-77.1,1.1-115.7
			C158,795.4,158,793.1,158,790z"/>
		<path d="M731.4,244.5c-0.7,72.2-59,128.5-132.3,127.8c-71-0.7-130-60.2-128.6-130.9c1.7-82.1,72.8-130.3,129.4-129.2
			C679.3,113.8,732.5,175.8,731.4,244.5z"/>
		<path d="M418.8,738.1c0-33.3,0-66.3,0-99.3c0-3.4,1.7-4.7,5-4.6c19.3,0.5,39.1-1.3,57.9,1.9c33.8,5.8,52.6,46.2,32.4,78.1
			c-10.1,16-25.3,23.3-43.8,23.8C453,738.4,435.7,738.1,418.8,738.1z"/>
	</g>
</g>
</svg>
