<?xml version="1.0" encoding="utf-8"?>
<!-- Generator: Adobe Illustrator 17.1.0, SVG Export Plug-In . SVG Version: 6.00 Build 0)  -->
<!DOCTYPE svg PUBLIC "-//W3C//DTD SVG 1.1//EN" "http://www.w3.org/Graphics/SVG/1.1/DTD/svg11.dtd">
<svg version="1.1" id="Слой_1" xmlns="http://www.w3.org/2000/svg" xmlns:xlink="http://www.w3.org/1999/xlink" x="0px" y="0px"
	 viewBox="0 0 1200 1200" enable-background="new 0 0 1200 1200" xml:space="preserve">
<g>
	<path d="M933.1,1014.2c0-236.7,0-472.1,0-708c-235.1,0-469.1,0-704.4,0c0,235.3,0,470.7,0,707c-29.4,0-57.5,0-86.8,0
		c0-235.4,0-470.7,0-707.4c-25.3,0-49.4,0-74,0c0-27,0-52.6,0-79c344.2,0,687.9,0,1032.4,0c0,26,0,51.6,0,78.5
		c-26.4,0-52.7,0-80.7,0c0,6.5,0,11.8,0,17.1c0,226.1-0.1,452.3,0.3,678.4c0,11.5-3.3,14-14.1,13.6
		C982,1013.7,958.1,1014.2,933.1,1014.2z"/>
	<path d="M857.2,936.3c-22.1,0-43.1,0-65.7,0c0,12.9,0,25.1,0,37.3c-0.1,24-15.9,40.4-38.9,40.5c-22.8,0-39.1-16.6-39.3-40.3
		c-0.1-11.9,0-23.9,0-36.5c-86,0-171.2,0-258.2,0c0,12.8,0.2,25.7,0,38.5c-0.2,16.6-8.1,28.6-23.3,34.9c-15.4,6.4-30.9,4.9-42.4-7.1
		c-6.4-6.7-10.5-17.3-12-26.6c-2-12.7-0.5-26-0.5-40.2c-22,0-43.2,0-65.1,0c-0.2-4.4-0.5-7.5-0.5-10.7c0-44.7-0.1-89.4,0-134.1
		c0-25.4,15.9-43.3,41.5-45.7c8.1-0.8,12.9-3.7,17.2-10.5c26.6-41.2,53.9-81.9,80.5-123.1c6.6-10.3,14.7-14.6,27-14.5
		c71.2,0.4,142.4,0.4,213.7,0c12.2-0.1,20.3,4.2,27,14.5c26.6,41.2,53.8,82,80.5,123.1c4,6.2,8.1,9.7,16.1,10.4
		c27.1,2.4,42.5,19.8,42.6,46.9C857.3,840.3,857.2,887.6,857.2,936.3z M412.7,744.3c115.2,0,228.3,0,342.9,0
		c-23.3-35.5-45.5-69.5-68.2-103.2c-1.6-2.5-6.8-3.6-10.3-3.6c-62.2-0.2-124.3-0.3-186.5,0.1c-4.1,0-9.5,3.2-11.9,6.6
		c-13.5,19.4-26.2,39.3-39.2,59C431,716.5,422.3,729.8,412.7,744.3z M415.9,776.9c-26.6-0.1-47.9,19.8-47.8,44.6
		c0.1,24.7,21.8,44.9,48,44.7c25.7-0.3,47.1-20.2,47.4-44.3C464,797.2,442.4,776.9,415.9,776.9z M752.9,776.9
		c-26.8,0-48.1,19.6-48.1,44.3c0,24.5,21.7,44.8,47.9,44.8c25.7,0,47.2-20,47.4-44.1C800.3,796.9,779.4,776.9,752.9,776.9z"/>
	<path d="M900.7,339.9c0,13.3,0,25.6,0,38.8c-210.9,0-421.4,0-632.7,0c0-12.8,0-25.4,0-38.8C478.5,339.9,689.1,339.9,900.7,339.9z"
		/>
	<path d="M267.9,452.3c0-13.3,0-25.8,0-38.9c210.8,0,421.1,0,632.2,0c0,12.7,0,25.5,0,38.9C689.7,452.3,479.4,452.3,267.9,452.3z"/>
	<path d="M900.5,487.1c0,13.4,0,25.9,0,39c-210.9,0-421.1,0-632.3,0c0-12.8,0-25.6,0-39C478.8,487.1,689,487.1,900.5,487.1z"/>
</g>
</svg>
