<?xml version="1.0" encoding="utf-8"?>
<!-- Generator: Adobe Illustrator 17.1.0, SVG Export Plug-In . SVG Version: 6.00 Build 0)  -->
<!DOCTYPE svg PUBLIC "-//W3C//DTD SVG 1.1//EN" "http://www.w3.org/Graphics/SVG/1.1/DTD/svg11.dtd">
<svg version="1.1" id="Слой_1" xmlns="http://www.w3.org/2000/svg" xmlns:xlink="http://www.w3.org/1999/xlink" x="0px" y="0px"
	 viewBox="0 0 1200 1200" enable-background="new 0 0 1200 1200" xml:space="preserve">
<g>
	<path d="M446.4,89.8c10.2,2.3,20.6,3.7,30.4,6.9c45.1,14.5,87.5,9.1,127.2-16.8c21.1-13.8,43.4-18.5,68.3-13.6
		C701.6,72,723,87,735.8,114.1c18,38.2,47.6,62.5,88.1,73.7c7,1.9,13.9,4,20.8,6.1c43.6,13.4,66.4,51.3,58.9,96.4
		c-3.4,20.6-6.9,41.3-8.2,62c-1.8,28.7,6.9,54.7,23.8,78.5c23.9,33.7,21.1,81.3-5.8,112.7c-5.1,5.9-11.8,10.6-18.3,15.2
		c-4.6,3.3-9.9,5.7-15.1,8.1c-37.8,17.9-60.2,48-66.7,88.8c-6.9,43.4-35.7,65.3-73.4,79.3c-12.9,4.8-25.9,3-38.8-1.4
		c-10.6-3.6-21.1-8.1-32.1-9.8c-34.8-5.3-67.3,1-94,25.4c-17,15.5-36,21.3-57.8,15.8c-18.5-4.7-36.8-10.5-54.7-17.3
		c-15.9-6-26.5-18.1-32.4-34.2c-5.6-15.3-13.4-29.4-24.7-41.4c-19.1-20.3-42.2-32.4-69.9-36.9c-52-8.5-85.2-62.3-70.4-113.1
		c6-20.4,11.5-40.7,10.2-62.3c-1.1-19.3-6.3-37.2-16.3-53.7c-1.9-3.2-3.7-6.5-6-9.5c-20.4-26.5-21.1-55.2-10.4-85.6
		c6.1-17.4,16.5-30,33.5-38c49.2-22.9,78.9-62.9,91.4-114.3c9.1-37.6,32.6-57,67.3-66.9c1.4-0.4,2.9-0.6,4.4-0.7
		c2.2-0.2,4.5-0.2,6.7-0.3C446.2,90.5,446.3,90.2,446.4,89.8z M328.4,413.1C328.2,555.3,443.3,670.9,585.1,671
		c142,0.1,257.8-115.1,257.8-256.8C843,272,727.9,156.3,586.2,156.4C443.8,156.4,328.6,271.1,328.4,413.1z"/>
	<path d="M764.8,1126.6c-39.8-91.7-79.7-183.4-120.2-276.7c86.5-9,162.8-41.2,231-95.2c38.9,90.6,77.3,179.9,115.7,269.2
		c-0.4,0.4-0.8,0.9-1.2,1.3c-56.1-26.5-112.2-52.9-169.4-79.9c-18.2,60.9-36.2,121.1-54.1,181.3
		C766,1126.6,765.4,1126.6,764.8,1126.6z"/>
	<path d="M379.6,945.3c-57,26.9-113,53.3-169,79.8c-0.5-0.3-1-0.6-1.6-0.9c38.3-85.3,76.7-170.5,115.7-257.3
		c66.9,54.1,144,80.6,228.9,89.3c-39.7,91-78.9,180.7-118.1,270.5c-0.6,0-1.2,0.1-1.8,0.1C415.8,1066.6,397.9,1006.6,379.6,945.3z"
		/>
	<path d="M809.5,413.6c0.2,122.9-100,223.3-223.4,223.6c-123.5,0.3-224.2-100.1-224.2-223.6c0-123.2,100.2-223.5,223.4-223.8
		C708.6,189.7,809.2,290.1,809.5,413.6z M554.6,443.8c-20.1-20.1-40.1-40.2-59.6-59.7c-15,15.1-29.2,29.4-42.6,42.8
		c34,34.1,68.5,68.8,102.4,102.8c63.4-63.4,127.3-127.2,190.4-190.3c-13.8-13.9-28.1-28.2-43.2-43.3
		C653.3,345,604.1,394.3,554.6,443.8z"/>
</g>
</svg>
