<?xml version="1.0" encoding="utf-8"?>
<!-- Generator: Adobe Illustrator 17.1.0, SVG Export Plug-In . SVG Version: 6.00 Build 0)  -->
<!DOCTYPE svg PUBLIC "-//W3C//DTD SVG 1.1//EN" "http://www.w3.org/Graphics/SVG/1.1/DTD/svg11.dtd">
<svg version="1.1" id="Слой_1" xmlns="http://www.w3.org/2000/svg" xmlns:xlink="http://www.w3.org/1999/xlink" x="0px" y="0px"
	 viewBox="0 0 1200 1200" enable-background="new 0 0 1200 1200" xml:space="preserve">
<g>
	<path d="M52.1,621.7c0-0.2,0-0.4,0-0.6c0.8-1.6,1.6-3.2,2.3-4.9c47.4-110.6,94.9-221.2,142.2-331.9c1.8-4.3,4.3-5.9,9-5.9
		c53.8,0.2,107.7,0.3,161.5,0.4c4.5,0,8.3-1.3,11.8-4c58-44.3,116-88.5,174-132.8c17.8-13.6,35.7-27.3,53.5-40.9c0.2,0,0.4,0,0.6,0
		c0.4,0.4,0.8,0.8,1.2,1.1c20,15.1,40.1,30.1,60.1,45.1c56.3,42.2,112.5,84.5,168.7,126.8c4.2,3.1,8.5,4.6,13.7,4.6
		c54.6-0.2,109.2-0.2,163.8-0.3c4.3,0,6.8,1.6,8.4,5.5c4.6,11.3,9.5,22.4,14.3,33.6c42.6,99.3,85.2,198.6,127.7,298
		c0.9,2,1.6,4,2.6,6.5c-1.6,0-2.6,0-3.7,0c-369.5,0-738.9,0-1108.4,0C54.4,622,53.3,621.8,52.1,621.7z M777.4,513.5
		c0-38.7,0-77,0-115.3c-52.7,0-105.3,0-158.1,0c0,1.3,0,2.3,0,3.4c0,36.1,0,72.2-0.1,108.3c0,2.9,0.7,3.7,3.7,3.7
		c50.3-0.1,100.7-0.1,151-0.1C774.9,513.5,776,513.5,777.4,513.5z M440.4,398.1c0,38.5,0,76.8,0,115.2c52.7,0,105.1,0,157.7,0
		c0-38.5,0-76.8,0-115.2C545.6,398.1,493.1,398.1,440.4,398.1z M606.7,102.9c-0.9,0.6-1.6,1.1-2.3,1.6c-17.9,13.7-35.8,27.3-53.8,41
		c-53.5,40.8-106.9,81.5-160.4,122.3c-11.5,8.8-23.1,17.6-34.6,26.4c-2.5,1.9-4.3,4-4.3,7.4c0.1,9.7,0,19.4,0.1,29
		c0,0.9,0.6,1.9,0.9,2.8c0.8-0.4,1.8-0.6,2.5-1.1c21.3-15.4,42.8-30.6,63.9-46.4c56.3-42,112.5-84.1,168.7-126.2
		c6.9-5.1,13.8-10.2,20.8-15.3c85,64.3,169.3,129,255.6,192.4c0-12.2-0.2-23.4,0.1-34.7c0.1-4.6-1.6-7.6-5.2-10.3
		C783.2,235.3,707.6,178.6,632,121.9C623.6,115.6,615.1,109.3,606.7,102.9z M440.5,311.5c0,25.3,0,50.3,0,75.3
		c52.7,0,105.1,0,157.6,0c0-25.2,0-50.2,0-75.3C545.5,311.5,493.1,311.5,440.5,311.5z M777.2,311.6c-52.8,0-105.2,0-157.5,0
		c0,25.2,0,50.2,0,75.2c52.7,0,105.1,0,157.5,0C777.2,361.6,777.2,336.6,777.2,311.6z M372.1,553.6c1.6,0,2.8,0,3.9,0
		c153.7,0,307.3,0,461,0c4.4,0,4.1,0.6,4.1-4.3c0-45.6,0-91.2,0-136.8c0-28.9,0-57.7,0-86.6c0-1.2-0.1-2.8-0.8-3.5
		c-3.3-2.9-6.8-5.5-10.8-8.7c0,75.6,0,150.3,0,225.2c-149.2,0-298.2,0-447.4,0c0-74.5,0-148.9,0-223.6c-2,1.2-3.7,2.1-5.3,3.1
		c-2.6,1.5-4.2,3.6-4.5,6.7c-0.1,1.8-0.4,3.7-0.4,5.5c0.1,73.1,0.1,146.2,0.2,219.3C372.1,551.1,372.1,552.2,372.1,553.6z"/>
	<path d="M711.3,771c-63.1,0-125.6,0-188.5,0c0,103.5,0,207,0,310.6c-136.7,0-273.1,0-409.7,0c0-145.6,0-291.1,0-436.8
		c0.8-0.1,1.5-0.2,2.3-0.2c0.7,0,1.4,0,2,0c326.1,0,652.2,0,978.4-0.1c7.3,0,7.4,0.1,7.4,7.4c0,141.2,0,282.4-0.1,423.5
		c0,2,0,4,0,6.2c-130.8,0-261.2,0-391.9,0C711.3,978.2,711.3,874.8,711.3,771z M1029.8,697.4c-42.5,0-84.7,0-127.1,0
		c0,25.2,0,50.3,0,75.5c42.4,0,84.6,0,127.1,0C1029.8,747.7,1029.8,722.7,1029.8,697.4z M448.8,863.9c0-25.4,0-50.5,0-75.6
		c-42.4,0-84.7,0-126.8,0c0,25.4,0,50.5,0,75.6C364.3,863.9,406.4,863.9,448.8,863.9z M902.8,788.2c0,25.4,0,50.5,0,75.6
		c42.5,0,84.7,0,126.9,0c0-25.3,0-50.4,0-75.6C987.3,788.2,945.2,788.2,902.8,788.2z M321.8,772.8c42.5,0,84.7,0,127,0
		c0-25.2,0-50.3,0-75.4c-42.4,0-84.6,0-127,0C321.8,722.5,321.8,747.5,321.8,772.8z M191.1,863.7c38.6,0,76.9,0,115.2,0
		c0-25.3,0-50.4,0-75.5c-38.5,0-76.8,0-115.2,0C191.1,813.4,191.1,838.4,191.1,863.7z M887.5,697.4c-38.5,0-76.7,0-114.9,0
		c0,25.3,0,50.4,0,75.5c38.4,0,76.6,0,114.9,0C887.5,747.7,887.5,722.6,887.5,697.4z M772.5,788.1c0,25.4,0,50.4,0,75.5
		c38.4,0,76.7,0,115,0c0-25.3,0-50.3,0-75.5C849.2,788.1,811,788.1,772.5,788.1z M191.2,697.4c-0.1,1.1-0.1,2-0.1,3
		c0,23.1,0,46.3-0.1,69.4c0,2.8,1,3.3,3.5,3.3c36.3-0.1,72.6,0,108.9-0.1c1,0,2-0.1,3-0.2c0-25.4,0-50.4,0-75.5
		C268,697.4,229.7,697.4,191.2,697.4z"/>
	<path d="M360.7,315.8c0-4.1-0.3-7.7,0.2-11.1c0.2-1.5,1.9-3,3.3-4.1c26.9-20.8,53.8-41.5,80.7-62.2
		c53.1-40.8,106.2-81.6,159.2-122.5c2-1.5,3.2-1.5,5.1,0c74.5,56.7,149,113.3,223.5,169.9c5.8,4.4,11.5,8.9,17.4,13.1
		c4.1,3,6.5,6.5,5.6,11.8c-0.3,1.5,0,3.1,0,5.2c-1.1-0.8-1.8-1.3-2.5-1.8C772.3,252.5,691.4,191,610.7,129.4c-1.9-1.5-3.1-1.6-5.1,0
		c-77.8,59.3-155.6,118.6-233.4,177.9C368.4,310,364.7,312.8,360.7,315.8z"/>
</g>
</svg>
