<?xml version="1.0" encoding="utf-8"?>
<!-- Generator: Adobe Illustrator 17.1.0, SVG Export Plug-In . SVG Version: 6.00 Build 0)  -->
<!DOCTYPE svg PUBLIC "-//W3C//DTD SVG 1.1//EN" "http://www.w3.org/Graphics/SVG/1.1/DTD/svg11.dtd">
<svg version="1.1" xmlns="http://www.w3.org/2000/svg" xmlns:xlink="http://www.w3.org/1999/xlink" x="0px" y="0px"
	 viewBox="0 0 1200 1200" enable-background="new 0 0 1200 1200" xml:space="preserve">
<g id="Слой_1">
	<path d="M1142.3,755.9c-16-14.2-32-28.2-48-42.4c-22.1-19.5-44.3-38.9-66.4-58.4c-15.7-13.9-31.5-27.6-46.7-41.9
		c-8.8-8.3-18.2-10.6-29.7-7.5c-42.5,11.4-84.8,23.1-127.5,33.7c-25.5,6.3-23.8,15.1-26.3,32.6c-0.6,4.1-0.9,8.3-1,12.4
		c-0.2,4.5-2.2,5.8-6.4,4.7c-19.6-4.9-39.3-9.6-58.9-14.7c-1.8-0.5-4.4-3.3-4.4-5.1c-0.2-51.5-0.2-103-0.2-154.5
		c0-0.6,0.3-1.2,0.8-3.1c6.3,5.5,12.2,10.5,17.9,15.7c16.9,15.5,33.8,30.9,50.5,46.6c3.2,3,5.2,3.1,8.1-0.1
		c15.2-16.8,30.5-33.5,45.8-50.3c5.9-6.5,11.8-13.1,18.4-20.3C724.9,372.5,581.6,241.6,438,110.5C375,166.9,312.6,222.9,248.9,280
		v-77H144.3v7.7c0,52.4,0.1,104.8-0.2,157.1c0,3-1.6,6.8-3.7,8.8c-26.8,24.5-53.8,48.8-80.8,73.1C43,464.6,26.5,479.5,9.9,494.3
		c-1.1,1,39,55.7,61,80.3c24-21.4,48-42.8,73.3-65.4c0,5.2,0,8.6,0,12.1c0,154.9,0,309.8-0.1,464.7c0,8,0.1,15.9,0,23.9
		c0,3.6,0.9,5.7,5.2,5.7c40.2-0.1,80.4-0.1,120.7-0.1c0.4,0,0.8-0.2,2.1-0.6V740.6h120.3v274.5h334V698.9c6.5,1.4,12.2,2.6,17.8,3.9
		c14.3,3.5,28.6,7.2,42.9,10.4c4.8,1.1,5.9,3.5,5.4,7.8c-2.5,20.9-4.9,41.9-7.3,62.8c-0.9,7.9-2,15.7-2.5,23.6
		c-0.6,7.9,3.1,13.9,8.9,19c20.6,17.9,41.1,35.9,61.7,53.8c20.1,17.5,40.2,34.9,60.2,52.4c14.7,12.9,29.4,26,44.1,38.9
		c14.5,12.8,28.9,25.9,43.7,38.3c11.7,9.9,24.5,6.8,36-6.7c15.1-17.7,30.9-35,46.4-52.4c17.4-19.6,34.8-39.2,52.2-58.8
		c12.3-13.8,24.7-27.6,37-41.4c6.5-7.2,13.2-14.2,19.4-21.7c7.6-9.1,7-21.8-1.7-29.9C1174.7,784.4,1158.5,770.2,1142.3,755.9z
		 M393,618.3c0,3.7,0.4,6.9-5.2,6.8c-37.3-0.2-74.6-0.1-111.9-0.1c-0.9,0-1.7-0.3-3.2-0.6V502c2-0.2,3.7-0.5,5.4-0.5
		c36.2,0,72.4,0.1,108.6-0.1c5,0,6.3,1.5,6.3,6.4C392.9,544.6,392.9,581.5,393,618.3z M602.4,624.5H483.5V502h118.8V624.5z
		 M1121.4,843.7c-23.8,26.8-47.7,53.6-71.5,80.4c-10.8,12.2-21.6,24.4-32.7,36.3c-1.1,1.2-5.2,1.6-6.4,0.6
		c-14.6-12.4-28.8-25.2-43.2-37.8c-20.1-17.7-40.3-35.5-60.4-53.2C889,854,870.8,838,852.7,822c-6.1-5.4-11.9-11.3-18.4-16
		c-5.7-4.1-7.4-8.2-6.3-15.5c2.8-18.7,4.2-37.5,6.2-56.3c0.3-2.8,0.9-5.6,1.5-8.9c9.1,2.1,17.8,3.9,26.4,6.4
		c1.8,0.5,3.6,3.6,4.2,5.9c4.7,18.5,21.3,26.7,35.5,25.4c17.8-1.6,31-17,31-34.5c0-12.7-8.7-26.3-20.6-30.5
		c-12.8-4.5-25.5-3.7-35.7,6.3c-3.7,3.6-7.1,4.4-11.6,3.2c-7-1.8-14-3.6-21.1-5.2c-4.4-1-5.6-3.3-5.4-8c0.4-11,4.7-16.2,16.4-18.8
		c32.8-7.3,65.1-16.7,97.7-25c2.1-0.5,5.3,0,6.9,1.4c13.7,11.7,27.2,23.7,40.8,35.6c19,16.7,38,33.4,56.9,50.2
		c14.8,13.1,29.7,26.2,44.5,39.4c14.6,13,29.2,26,44.3,39.5C1137.5,825.7,1129.4,834.7,1121.4,843.7z"/>
</g>
<g id="Слой_2">
</g>
</svg>
