<?xml version="1.0" encoding="utf-8"?>
<!-- Generator: Adobe Illustrator 17.1.0, SVG Export Plug-In . SVG Version: 6.00 Build 0)  -->
<!DOCTYPE svg PUBLIC "-//W3C//DTD SVG 1.1//EN" "http://www.w3.org/Graphics/SVG/1.1/DTD/svg11.dtd">
<svg version="1.1" xmlns="http://www.w3.org/2000/svg" xmlns:xlink="http://www.w3.org/1999/xlink" x="0px" y="0px"
	 viewBox="0 0 1200 1200" enable-background="new 0 0 1200 1200" xml:space="preserve">
<g id="Слой_1">
</g>
<g id="Слой_2">
	<path d="M983.7,930.2c-126.8,0-251.7,0-377.1,0c0,27.9,0,54.8,0,83c3.4,0,6.5,0,9.6,0c93.5,0,187,0,280.5-0.1
		c5.7,0,9.8,1.5,13.8,5.7c9.7,10.2,20,19.8,29.6,30c2.3,2.4,3.9,6.4,4,9.7c0.5,11,0.2,22,0.2,33.7c-252,0-503.5,0-756,0
		c0-12.6-0.2-25,0.2-37.5c0-1.9,2-3.9,3.5-5.5c10.7-10.9,21.4-21.9,32.6-32.3c2.5-2.3,7-3.5,10.7-3.6c93.5-0.2,187-0.1,280.5-0.2
		c11.5,0,10.8,1.7,10.8-10.9c0-21.1-0.3-42.1,0.2-63.2c0.2-7.4-2.2-9.1-9.3-9.1c-137.4,0.2-274.7,0-412.1,0.2
		C73,930.2,46,919.3,25,894.5C10.3,877,2.6,856.6,2.5,833.7c-0.1-207.8-0.2-415.6,0-623.4c0.1-52.3,42.9-94.5,96.3-96
		c1.8,0,3.5,0,5.3,0c308.1,0,616.2,0,924.2,0c37.2,0,66.5,14.8,86.9,46.1c10,15.3,14.8,32.3,14.9,50.5c0.1,64.4,0.1,128.8,0.1,193.3
		c0,1.2-0.2,2.4-0.4,4.6c-1.7-1.1-3-1.6-3.9-2.5c-10.8-10.1-21.8-20-32.2-30.4c-2.1-2.1-3.3-6-3.3-9.1c-0.2-51.6,0-103.3-0.2-154.9
		c-0.1-28.3-19.3-51.1-46.9-56.4c-4.6-0.9-9.5-1-14.2-1c-308.6,0-617.1-0.1-925.7,0c-36.7,0-61,23.9-61,60.7
		c-0.1,164.9-0.1,329.9,0,494.8c0,37.4,24.4,61.2,62.2,61.2c187.3,0.1,374.5,0.1,561.8-0.1c6.7,0,10.6,2.1,14.8,7.4
		c61,78.3,141.1,117.8,240.6,117.2c11.5-0.1,22.9-2.3,34.4-3.1c2.3-0.2,5.9,0.7,6.9,2.3C969.8,905.7,976.1,917.1,983.7,930.2z"/>
	<path d="M914.2,353.3c139.8,0.3,251.4,113.1,251.1,253.7c-0.3,137.3-113.6,249.1-252.1,248.8c-139.1-0.3-251-113-250.7-252.5
		C662.9,465.4,775.9,353,914.2,353.3z M1123.5,604.4c0-115.8-93.6-209.1-209.8-209.2c-115.7-0.1-209.6,93.8-209.6,209.6
		c0,115.8,94.2,209.7,210.4,209.8C1029.9,814.6,1123.5,720.5,1123.5,604.4z"/>
	<path d="M168.7,332.7c0-13.2,0-25.9,0-39c174.5,0,348.5,0,523.4,0c0,10.5,0,20.4,0,30.4c0,2.7,0,5.4,0,8.6
		C517.3,332.7,343.4,332.7,168.7,332.7z"/>
	<path d="M1186.2,950.8c-36.2,20.9-71.6,41.4-108,62.5c-27.7-47.9-55.3-95.5-83.3-143.9c36.1-20.9,71.7-41.5,108.1-62.5
		C1130.7,854.9,1158.2,902.5,1186.2,950.8z"/>
	<path d="M555.8,520.4c-129.4,0-258.1,0-387.2,0c0-13,0-25.5,0-38.6c129,0,257.8,0,387.2,0C555.8,494.6,555.8,507.2,555.8,520.4z"/>
	<path d="M168.6,614.4c0-13,0-25.4,0-38.5c129,0,257.8,0,387.1,0c0,12.7,0,25.3,0,38.5C426.9,614.4,298.2,614.4,168.6,614.4z"/>
	<path d="M168.6,426.5c0-12.9,0-25.3,0-38.4c129,0,257.8,0,387.6,0c0,6.5,0,12.9,0,19.3c0,6.2,0,12.4,0,19.1
		C426.9,426.5,298.2,426.5,168.6,426.5z"/>
	<path d="M1089,1033c36.4-21,71.8-41.4,108.1-62.3c10.5,18.5,11.7,37.1,3.4,55.8c-10.4,23.4-29,36.2-54.5,37.5
		C1121.8,1065.2,1103.2,1054.3,1089,1033z"/>
</g>
</svg>
