<?xml version="1.0" encoding="utf-8"?>
<!-- Generator: Adobe Illustrator 17.1.0, SVG Export Plug-In . SVG Version: 6.00 Build 0)  -->
<!DOCTYPE svg PUBLIC "-//W3C//DTD SVG 1.1//EN" "http://www.w3.org/Graphics/SVG/1.1/DTD/svg11.dtd">
<svg version="1.1" id="Слой_1" xmlns="http://www.w3.org/2000/svg" xmlns:xlink="http://www.w3.org/1999/xlink" x="0px" y="0px"
	 viewBox="0 0 1200 1200" enable-background="new 0 0 1200 1200" xml:space="preserve">
<g>
	<path d="M988.8,48.7c6.1,3.7,12.8,6.6,18.1,11.2c10.3,9,14.1,21.2,14,34.8c-0.1,20.1,0,40.2,0,61.7c5.4,0,10,0,14.7,0
		c18.9,0,37.8-0.2,56.8,0.1c20.4,0.2,33.1,12.7,33.2,33.3c0.2,64,0.2,127.9,0,191.9c-0.1,20.4-10.1,31.3-30.2,35
		c-66.1,12.2-132.2,24.6-198.3,36.6c-84.4,15.4-168.9,30.6-253.3,45.9c-12.7,2.3-25.3,4.9-38.1,6.9c-5.8,0.9-8.2,3-8.1,9.2
		c0.3,31.2,0.2,62.5,0,93.7c0,6,2.1,7.9,7.9,7.7c8.1-0.3,16.2-0.3,24.3,0c24.1,0.9,41.1,17.7,42,41.7c0.4,9.9,0.1,19.8,0.1,29.7
		c0,144.1-0.4,288.3,0.4,432.4c0.1,26.6-6.9,46.3-32.9,56.3c-48.7,0-97.3,0-146,0c-14.9-6.8-27.9-15.3-31.1-33
		c-0.9-5-1.3-10.1-1.3-15.2c-0.1-154.3-0.1-308.7,0-463c0-33.4,15.7-49,49.2-49c7.8,0,15.5,0,24.8,0c0-4.3,0-7.7,0-11.2
		c0-39,0-78.1,0-117.1c0-23.8,9-34.7,32.2-39c98.3-18,196.5-36.1,294.8-54c64-11.7,128.1-23.2,192.2-34.6c6.7-1.2,8.8-3.8,8.8-10.5
		c-0.3-40.5-0.3-81.1,0-121.6c0-7.2-1.7-10.3-9.5-9.9c-10.4,0.6-20.9,0.2-32.5,0.2c0,21.1,0.9,41.2-0.4,61.1
		c-0.6,9.8-3.6,20.1-8.3,28.7c-6.2,11.4-17.6,16.7-30.7,17.6c-3,0.2-6,0.2-9,0.2c-279.9,0-559.7,0-839.6,0c-24.2,0-39-8.7-45.5-27.7
		c-2.3-6.7-3.1-14.1-3.1-21.2c-0.2-58.9,0.3-117.7-0.3-176.6c-0.2-25.7,8.7-44.1,34.3-52.3C408.5,48.7,698.6,48.7,988.8,48.7z
		 M988.6,88.6c-4-9.9-11.4-8.6-18-8.6c-278.4,0-556.7,0-835.1,0c-2.4,0-4.8,0-7.2,0c-7.6,0-12.6,4.3-12.7,11.3
		c-0.5,20.1,0.1,40.1,0.3,60.2c0,0.3,0.9,0.6,1.5,1.1c9.7-4.4,19.3-9.7,29.4-13.1c10.1-3.3,20.8-4.8,32.6-7.3c0,4.9,0,7.8,0,10.7
		c0,18.6-0.1,37.2,0,55.9c0.1,19.1,13.6,33.4,31.3,33.7c17.4,0.2,31.3-14.3,31.6-33.6c0.3-15.3,0-30.6,0.1-45.9
		c0-3.1,0.3-6.3,0.6-11.1c40.5,12.6,80.1,18.1,120.4,3.7c-1.5,25.3,3.7,37.2,17.4,42.3c8.9,3.3,18.3,4.4,26-1
		c6.9-4.8,12-12.3,18.3-18.9c4,13.2,7.5,27.5,12.5,41.2c5.4,14.5,11.3,29,18.7,42.5c6,11,18.7,14.4,30.6,10.7
		c13.8-4.3,21.7-14.3,26-27.6c6.1-19,5.2-38.4,4.8-58c-0.3-17.3,1.4-34.6,2.2-51.9c0.2-5.1,3.2-6.2,7.8-6.3c12-0.4,24-1.7,36-1.8
		c7.9,0,16.3,0,23.7,2.5c35.9,12.1,72.6,18.1,110.5,18c13.2,0,26.4,0.6,39.5,2.2c24,2.9,46,11.2,60.6,31.4
		c11.4,15.7,20.3,33.1,30.1,49.9c8.2,14,21.9,18.9,36.9,12.6c15-6.3,20.9-18.3,22.7-33.8c2.9-25,6.9-49.9,10.1-74.8
		c0.8-5.9,2.8-9,9.2-9.8c9.2-1.1,18.6-2.4,27.4-5.2c8-2.6,18.7-5.3,22.2-11.4c6.6-11.6,15.5-9.8,25-9.7
		C983.4,88.6,985.2,88.6,988.6,88.6z M668.4,215c0.1-18.3-12.2-31.3-29.7-31.5c-17.9-0.2-31,13.1-31,31.3
		c0,18.1,12.6,31.3,29.9,31.6C655.3,246.8,668.3,233.5,668.4,215z"/>
</g>
</svg>
