<?xml version="1.0" encoding="utf-8"?>
<!-- Generator: Adobe Illustrator 17.1.0, SVG Export Plug-In . SVG Version: 6.00 Build 0)  -->
<!DOCTYPE svg PUBLIC "-//W3C//DTD SVG 1.1//EN" "http://www.w3.org/Graphics/SVG/1.1/DTD/svg11.dtd">
<svg version="1.1" xmlns="http://www.w3.org/2000/svg" xmlns:xlink="http://www.w3.org/1999/xlink" x="0px" y="0px"
	 viewBox="0 0 1200 1200" enable-background="new 0 0 1200 1200" xml:space="preserve">
<g id="Слой_1">
</g>
<g id="Слой_2">
	<g>
		<path d="M164.2,290.4c18.5-14.9,37.9-21.9,59.6-21.9c136.9-0.2,273.7-0.2,410.6-0.2c119.6,0,239.2,0.1,358.7,0.1
			c21.7,0,40.6,6,55.9,24.7c-8.4,7.4-16.4,14.6-24.6,21.6c-131.3,111-262.6,221.9-393.9,332.8c-25.3,21.4-34.2,21-59.1-0.9
			C439,530.9,306.6,415.3,174.3,299.7C171.4,297.2,168.7,294.6,164.2,290.4z"/>
		<path d="M494.5,642.6c27.7,24.3,55.3,48.1,82.5,72.4c16.4,14.7,28.5,15.9,45.8,1.8c27.9-22.7,55.3-46.1,83-69.2
			c3.6-3,7.4-5.9,11.7-9.4c98.2,78.6,195.9,156.7,296,236.8c-270.7,0-538.3,0-809.6,0C301.8,796.7,397.8,720,494.5,642.6z"/>
		<path d="M761.6,600.7c101-85.6,200.1-169.6,300.3-254.5c0,164.7,0,327.8,0,494.6C960.4,759.6,861.7,680.7,761.6,600.7z"/>
		<path d="M156.9,839.8c0-165.4,0-327.6,0-492c98.1,85.7,195.4,170.7,294,256.8C353.2,682.8,256.4,760.2,156.9,839.8z"/>
	</g>
</g>
</svg>
