<?xml version="1.0" encoding="utf-8"?>
<!-- Generator: Adobe Illustrator 17.1.0, SVG Export Plug-In . SVG Version: 6.00 Build 0)  -->
<!DOCTYPE svg PUBLIC "-//W3C//DTD SVG 1.1//EN" "http://www.w3.org/Graphics/SVG/1.1/DTD/svg11.dtd">
<svg version="1.1" id="Слой_1" xmlns="http://www.w3.org/2000/svg" xmlns:xlink="http://www.w3.org/1999/xlink" x="0px" y="0px"
	 viewBox="0 0 1200 1200" enable-background="new 0 0 1200 1200" xml:space="preserve">
<path d="M774.9,526c12.8,6.8,23,9.4,36.2,4.5c112.2-42,224.7-83.3,337.2-124.7c27.5-10.2,47.7,4.1,47.7,33.6
	c0,170.8,0,341.6,0,512.5c0,29.6-15.8,53.4-44,63.3c-103.1,36.4-206.3,72.5-309.6,108.3c-31.8,11-63.5,9-95.1-2.3
	c-110.6-39.4-221.4-78.2-331.9-117.7c-11.8-4.2-21.9-4.1-33.7,0.3c-111.9,41.7-224,83-336.2,124.2c-20.1,7.4-36,0.3-43.3-18.7
	c-1.5-4-2-8.6-2-13C0,923.9,0,751.5,0,579c0-28.7,17-51.8,45.9-62c98.9-34.9,197.9-69.6,296.8-104.4c3.7-1.3,7.4-2.8,11.5-4.4
	c-5.5-16.8-11.7-32.7-15.7-49.1c-13.8-57.7-0.1-111.3,29.2-160.8c43.9-74.2,110.6-117,195.7-126.6c111.8-12.6,201.8,28,262.5,123.6
	c45.5,71.7,49.4,147.8,9.3,224.1c-16.2,30.8-34.1,60.8-51.2,91.1C781.4,515.5,778.4,520.2,774.9,526z M64.4,1052.7
	c4.4-1.1,7.6-1.6,10.5-2.7c93.8-34.6,187.6-69.4,281.5-103.8c9.2-3.4,10.9-8.7,10.8-17.3c-0.2-147.3-0.1-294.6-0.2-441.9
	c0-4.3-0.5-8.5-0.9-14.1c-5.4,1.4-9.3,2.2-13,3.5c-93.6,32.5-187.2,65.2-280.9,97.5c-8.1,2.8-11.3,6.7-11.3,15.7
	c0.7,139.6,0.9,279.1,1.4,418.7C62.5,1022.9,63.7,1037.3,64.4,1052.7z M829.9,1060c5.4-1.3,8.6-1.9,11.6-2.9
	c94.8-33.1,189.5-66.3,284.3-99.1c7.8-2.7,9.1-7.2,9.1-14.5c-0.5-137.9-0.9-275.8-1.3-413.8c0-16.1,0-32.2,0-50.1
	c-7.7,2.1-12.4,3.1-16.9,4.7C1025.7,518,934.7,552,843.5,585.2c-11,4-14.9,9.3-14.8,21c0.3,146,0.2,292.1,0.3,438.1
	C828.9,1049,829.4,1053.7,829.9,1060z M598.1,653.1c24.3-30.5,47.3-58.3,69.1-86.9c43.3-56.8,84.3-115.1,114.6-180.2
	c15.6-33.6,22-68.3,12.9-105.1C772.5,190.1,684,126.6,587.1,132.7c-63.6,4-115.4,29.8-153.8,80.8c-28.7,38.2-42.3,80.8-33.6,128.9
	c5.5,30.3,18.5,58.1,34.9,83.5c32,49.7,65.2,98.7,99.4,146.9C553.2,599.9,575.3,624.8,598.1,653.1z M432.7,542.7
	c-0.9,0.3-1.9,0.7-2.8,1c-0.3,2.7-0.8,5.4-0.8,8.1c0,126.2,0,252.3-0.3,378.5c0,9,3.6,12.7,11.6,15.5
	c103.4,36.3,206.8,72.9,310.2,109.3c4.7,1.7,9.7,2.7,16.1,4.5c0-7.6,0-13.2,0-18.8c0-142.8,0.1-285.6-0.1-428.4
	c0-23.2,4.8-18.9-20.5-28.5c-7-2.7-11.4-1.7-16.4,4.5c-34.2,42.7-68.9,85-103.5,127.4c-16.7,20.4-38.9,21.4-55.7,1.1
	c-36.4-44-72.2-88.6-107.9-133.3C452.2,570.4,442.7,556.4,432.7,542.7z"/>
<path d="M597.6,285.9c27.1,0,48,20.5,48.2,47.3c0.1,27.2-20.4,48.1-47.3,48.3c-27.2,0.2-48.4-21.3-48.2-48.8
	C550.4,306.6,571.4,285.9,597.6,285.9z"/>
</svg>
