<?xml version="1.0" encoding="utf-8"?>
<!-- Generator: Adobe Illustrator 17.1.0, SVG Export Plug-In . SVG Version: 6.00 Build 0)  -->
<!DOCTYPE svg PUBLIC "-//W3C//DTD SVG 1.1//EN" "http://www.w3.org/Graphics/SVG/1.1/DTD/svg11.dtd">
<svg version="1.1" xmlns="http://www.w3.org/2000/svg" xmlns:xlink="http://www.w3.org/1999/xlink" x="0px" y="0px"
	 viewBox="0 0 1200 1200" enable-background="new 0 0 1200 1200" xml:space="preserve">
<g id="Слой_1">
</g>
<g id="Слой_2" style="fill: #B69A68;">
	<path d="M578.8,820.4c-5.1-7.8-9-13.8-12.9-19.8c-51.9-79-101.1-159.7-146.3-242.7c-36.3-66.6-70.1-134.3-94.6-206.4
		c-15.8-46.4-20.6-93.2-8.2-140.9C341.9,113.9,402,48.4,496.6,16.5c106.9-36,227,2.4,295.4,92c24.7,32.3,41.6,68.1,50.5,107.7
		c11.7,51.9,2.9,101.7-15.5,150.5c-29,77.1-65.1,150.8-106.9,221.8C688,643,655.7,697.4,623,751.5
		C609.2,774.3,594.3,796.4,578.8,820.4z M438.3,236.6c-2.1,73.6,58.4,141.1,140,142c77.6,0.8,140.9-63.1,141.3-141.1
		c0.4-80-67.6-142.9-144.4-141.1C502.1,98.2,436.9,160.4,438.3,236.6z"/>
	<path d="M793.7,581.2c28,12.9,55.6,25.6,83.1,38.4c13.6,6.3,26.9,13.1,40.6,18.9c15.1,6.4,24.7,16.9,29.4,32.7
		c14.1,47.5,28.6,95,42.9,142.5c29.4,97.3,58.7,194.5,88.2,291.8c2.4,7.9,6.6,15.5,7.5,23.5c3.6,33.1-26.2,56.2-60.5,47
		c-35.6-9.5-70.9-19.6-106.4-29.4c-68.6-18.9-137.2-37.8-205.9-56.4c-4-1.1-9.1-0.7-12.8,0.8c-82.1,34-164,68.4-246.1,102.3
		c-6.7,2.8-14.4,4.3-21.7,4.3c-94.3,0.3-188.6,0.2-282.9,0.1c-31.3,0-51.7-27.4-42.8-57.6c16.1-54.2,32.7-108.3,49-162.4
		c24.5-81.2,49-162.4,73.4-243.6c4.5-15.1,8.3-30.4,13.3-45.3c5.7-17.1,17.7-32.5,41.4-32.6c41.1-0.2,82.3-0.4,123.4-0.9
		c5.1-0.1,7.4,2.3,9.8,6.4c48.2,82.6,100.3,162.7,154.6,241.3c7,10.1,15.7,10.2,22.8-0.1c17-24.9,34-49.8,50.7-75
		c52.5-79.3,102.6-160,147-244.1C792,583.2,792.6,582.6,793.7,581.2z M460,1116.8c-0.5-2.5-0.8-3.5-0.8-4.5
		c0-57.2-0.1-114.3,0.2-171.5c0-2.4,3.1-6,5.6-7c11-4.8,22.3-8.8,33.5-13.1c15.6-6,31.2-12.1,47.7-18.5c-8.1-12-16-23-23.2-34.5
		c-3.4-5.5-6.6-6.1-12.3-3.8c-16.7,6.9-33.7,13.1-51.5,20c0-4.3,0-7.5,0-10.6c0-32.1,0.1-64.1-0.1-96.2c0-3.6-0.7-7.6-2.5-10.6
		c-17.1-28.6-34.4-57.2-52-85.5c-1.4-2.2-4.9-4.2-7.5-4.3c-36.9-0.3-73.7-0.3-110.6-0.1c-13.3,0.1-20.7,6-24.7,18.7
		c-7.4,23.9-14.7,47.9-22,71.9c-19.6,64.8-39.2,129.7-58.8,194.5c-18.2,60.3-36.3,120.6-54.2,180.9c-1.5,5.2-2.5,11.2-1.5,16.4
		c2.4,12.6,11.9,18.8,26.8,18.8c91.9,0.1,183.8,0.2,275.7-0.1c7.7,0,15.9-1.9,23.1-4.9c83.6-34.6,167-69.6,250.5-104.4
		c2.6-1.1,6.3-1.1,9.1-0.4c69.2,19,138.3,38.2,207.4,57.3c38.3,10.6,76.6,21.2,114.9,31.7c10.5,2.9,19.7-0.2,27-7.8
		c6.8-7,7.3-15.5,4.1-24.6c-4.5-13.1-9-26.2-13-39.4c-41.1-136.1-82.2-272.1-123.2-408.2c-2.8-9.1-7.9-15.5-16.5-19.3
		c-9.5-4.2-19-8.6-28.4-13c-24.7-11.5-49.3-23.1-74-34.4c-2.3-1-7.3-1.2-8,0c-7.6,12.7-14.6,25.8-21.8,39c2.7,1.4,4.3,2.3,5.9,3.1
		c30.3,14,60.5,28.2,90.8,42c5.5,2.5,8.6,5.7,10.4,11.8c10.7,36.3,22,72.5,33,108.7c3,10,5.8,20.2,8.9,31.1
		c-2.8-0.3-4.1-0.4-5.3-0.7c-63.1-15.7-126.2-31.4-189.4-47c-4.7-1.2-5.8-3.5-5.8-7.8c0.2-11.7,0-23.5,0-35.3c0-5.1,0-10.3,0-15.4
		c-0.6-0.1-1.3-0.1-1.9-0.2c-26.2,40.6-52.4,81.3-80.1,124.1c12.3-4.7,22.3-8.5,33.1-12.7c0.2,3.5,0.4,6.1,0.4,8.7
		c0,52.4-0.1,104.7,0.2,157.1c0,6.5-2.3,9.2-8,11.6c-53.3,22-106.4,44.4-159.6,66.6C494.7,1102.3,477.8,1109.4,460,1116.8z"/>
	<path d="M1004,1102.8c-24.1-6.5-47.5-12.8-70.8-19.2c-65.8-18.2-131.5-36.5-197.4-54.5c-6.5-1.8-8.8-4.2-8.8-11.2
		c0.3-53.4,0.2-106.8,0.2-160.2c0-2.1,0-4.2,0-7.8c13.8,3.4,26.8,6.7,39.9,9.9c56.6,14.1,113.3,28.2,170,42.1
		c5.7,1.4,9,3.7,10.8,9.7c18.5,62.6,37.4,125.2,56.1,187.7C1004.2,1100,1004,1100.9,1004,1102.8z"/>
	<path d="M410.6,943.3c0,62.5,0,123.8,0,185.8c-76.3,0-152.3,0-228.8,0c0.3-2.2,0.4-4.2,1-6.2c17-56.2,34-112.3,50.9-168.5
		c1.3-4.4,2.2-8.1,8.6-8.2c53.4-0.8,106.8-1.9,160.2-3C404.9,943.3,407.3,943.3,410.6,943.3z"/>
	<path d="M302.9,728.5c35.9,0,71.4,0,107.4,0c0,56.5,0,112.7,0,170.2c-52.9,1-105.6,2-159.6,3C268.4,843.2,285.6,785.9,302.9,728.5z
		"/>
</g>
</svg>
