<?xml version="1.0" encoding="utf-8"?>
<!-- Generator: Adobe Illustrator 17.1.0, SVG Export Plug-In . SVG Version: 6.00 Build 0)  -->
<!DOCTYPE svg PUBLIC "-//W3C//DTD SVG 1.1//EN" "http://www.w3.org/Graphics/SVG/1.1/DTD/svg11.dtd">
<svg  version="1.1" xmlns="http://www.w3.org/2000/svg" xmlns:xlink="http://www.w3.org/1999/xlink" x="0px" y="0px"
	 viewBox="0 0 1200 1200" enable-background="new 0 0 1200 1200" xml:space="preserve">
<g id="Слой_2">
</g>
<g id="Слой_3" style="fill: #B69A68;">
	<path d="M93,717.8c0-153.3,0-306.6-0.1-459.9c0-10.9,2.2-20.7,12-26.3c5.1-2.9,11.5-4.9,17.3-4.9c234.5-0.2,468.9-0.2,703.4-0.2
		c17.8,0,28.7,10.8,28.8,28.8c0.1,28.9,0,57.7,0,86.6c0,277.5,0,555,0,832.6c0,3.8,0.1,7.6-0.2,11.3c-1.1,12.7-10.3,17.8-21.5,11.5
		c-9.3-5.2-18.3-10.9-27.4-16.4c-100.6-60.8-201.4-121.4-301.8-182.5c-22.3-13.6-42.1-10.6-63.5,2.5
		C333,1066,225.5,1130.5,118.2,1195.2c-2.2,1.3-4.5,2.7-6.9,3.6c-8.3,3.1-15.3-0.5-17.4-9.1c-0.9-3.9-0.9-8-0.9-12
		C93,1024.5,93,871.2,93,717.8z M433.7,667.7c0,4.2,0,7,0,9.8c0,29.1-0.1,58.2,0.1,87.3c0.1,15.6,11.2,26.9,26.6,27.4
		c7.8,0.3,15.6,0.1,23.4,0.1c20.2-0.1,30.7-10.5,30.7-30.6c0-28.2,0-56.3,0-84.5c0-9.5,0-9.5,9.8-9.5c28.2,0,56.3,0.1,84.5,0
		c20.1-0.1,30.7-10.7,30.9-30.6c0-6.4,0-12.8,0-19.2c-0.1-21.1-10.3-31.3-31.4-31.4c-28.4-0.1-56.8-0.2-85.2,0.1
		c-6.9,0.1-8.8-2-8.7-8.8c0.3-29.3,0.3-58.7,0.1-88c-0.1-16.9-10.7-27.4-27.5-27.9c-8-0.2-16.1-0.1-24.1,0
		c-18.8,0.2-29.1,10.7-29.2,29.8c0,28.6,0,57.3,0,85.9c0,2.7,0,5.5,0,8.9c-4,0-6.8,0-9.6,0c-28.6,0-57.3-0.1-85.9,0
		c-18.8,0.1-29.5,10.9-29.6,29.6c0,6.9,0,13.7,0,20.6c0.1,20.4,10.6,30.9,31.2,31c28.2,0.1,56.3,0,84.5,0
		C427,667.7,429.8,667.7,433.7,667.7z"/>
	<path d="M1071,507.1c0,154.2,0,308.5,0,462.7c0,4,0.1,8.1-0.6,12c-1.6,8.7-8.2,12.2-16.4,8.9c-3-1.2-5.9-3.1-8.6-4.9
		c-28.1-19.3-56.1-38.7-84.1-58C944.3,916,936,899.7,936,879c0-231.4,0-462.7,0-694.1c0-4.3,0.1-8.5-0.1-12.8
		c-0.5-14.8-11.3-25.8-26-26.7c-3.3-0.2-6.6-0.1-9.9-0.1c-185.7,0-371.4,0-557.1-0.1c-6,0-12.5-0.5-18-2.8
		c-9.9-4.2-15.3-12.8-15.4-23.6c-0.3-27.2-0.4-54.4,0-81.6c0.2-15.4,11.4-26,26.6-26.8c2.1-0.1,4.3-0.1,6.4-0.1
		c231.8,0,463.7,0,695.5,0.2c6.4,0,13.4,1.1,19.1,3.8c8.7,4,13.1,12,13.8,21.7c0.2,3.3,0.1,6.6,0.1,9.9
		C1071,199.5,1071,353.3,1071,507.1z"/>
</g>
</svg>
