<?xml version="1.0" encoding="utf-8"?>
<!-- Generator: Adobe Illustrator 17.1.0, SVG Export Plug-In . SVG Version: 6.00 Build 0)  -->
<!DOCTYPE svg PUBLIC "-//W3C//DTD SVG 1.1//EN" "http://www.w3.org/Graphics/SVG/1.1/DTD/svg11.dtd">
<svg version="1.1" xmlns="http://www.w3.org/2000/svg" xmlns:xlink="http://www.w3.org/1999/xlink" x="0px" y="0px"
	 viewBox="0 0 1200 1200" enable-background="new 0 0 1200 1200" xml:space="preserve">
<g id="Слой_1">
</g>
<g id="Слой_2">
	<g>
		<path d="M185.3,1094.4c0-5.1,1.2-10,2.1-14.9c13.9-74.2,45-140.4,93.7-198.1c46.1-54.6,102.5-95,168.6-121.9
			c7-2.8,12.8-3.1,20-0.2c29.5,11.9,60.2,19.3,91.7,23.2c26.5,3.3,53,3.8,79.7,1.6c39.1-3.1,76.7-11.9,113.1-26.6
			c2.7-1.1,4.8-0.5,7.2,0.4c44.5,17.3,85.1,41.2,121.5,72.1c48.9,41.3,86.7,91.1,113.5,149.2c16.3,35.5,27.3,72.7,33.5,111.3
			c0.7,4.1,0.5,4.3-3.6,4.4c-1.2,0-2.4,0-3.5,0c-276.8,0-553.6,0-830.3,0C190.1,1094.9,187.8,1095.4,185.3,1094.4z"/>
		<path d="M609.9,131.1c149.8,0.6,265.4,122.6,264.9,266c-0.4,144.5-117.9,264.8-265.9,264.4c-147.7-0.4-264.5-121-264.5-265.4
			C344.6,253.2,460.1,131.5,609.9,131.1z"/>
	</g>
</g>
</svg>
