<?xml version="1.0" encoding="utf-8"?>
<!-- Generator: Adobe Illustrator 17.1.0, SVG Export Plug-In . SVG Version: 6.00 Build 0)  -->
<!DOCTYPE svg PUBLIC "-//W3C//DTD SVG 1.1//EN" "http://www.w3.org/Graphics/SVG/1.1/DTD/svg11.dtd">
<svg version="1.1" id="Слой_1" xmlns="http://www.w3.org/2000/svg" xmlns:xlink="http://www.w3.org/1999/xlink" x="0px" y="0px"
	 viewBox="0 0 1200 1200" enable-background="new 0 0 1200 1200" xml:space="preserve">
<path d="M599.5,1084.1c-49.2,23-99.1,44-150.4,61.8c-24.7,7.1-49.4,14.2-74,21.3c-24.6,5-49.2,9.9-73.8,14.9
	c-25.6,3.7-51.2,7.3-76.8,11c-37.6,2.6-75.3,5.6-113.1,4.8c-24.4-0.5-44.7-15.3-51.8-38.8c-3.4-11.5-47.5-206.1-59-257.2
	c0.3-5.1,0.8-12.8,1.2-18c7.3-20,20.5-33.5,40.5-41c10.9-4.1,211.4-90.4,259-110.9c29.1-6.8,50.7,4.1,68.5,27.2
	c18,23.3,35.9,46.7,56.5,67.9c5.4,9.7,12.7,17.8,20.7,25.4c9,11.4,18,22.7,26.9,34.2c3.4,4.4,6.8,5.1,11.7,2.3
	c13.5-7.5,28-13.1,40.6-22.1c22.5-12.8,105.8-71.6,122.2-83.1c28.2-19.9,53.1-43.3,77.4-67.2c21.2-20.8,40.7-43.5,59.2-66.8
	c12.2-15.4,71.3-100.3,83.8-125.5c8.6-10.8,12.9-24,19.9-35.7c5-8.5,3.3-12.9-4.2-19c-45.3-36.7-90.2-74-135.1-111.1
	c-12.4-10.3-17.5-24.1-17.9-39.8c-0.1-2.3-0.1-4.6,0-6.8c0.1-7.4,1.8-14.6,5-21.3c14.8-30.8,51.1-119.9,60.9-141.6
	c14.7-33.8,29.5-67.6,44.2-101.4c5.1-11.7,9.8-23.7,19.5-32.6c16.7-15.3,36.5-17.2,57.5-12.6c43.5,9.6,87,19.5,130.5,29.2
	c25.2,7.6,51,12.8,76.8,18.1c8.8,2.1,17.7,4.3,26.5,6.4c30.7,7.5,47.2,28.4,47.2,59.9c0,10.9-2,42.5-2.2,47.4
	c-1.4,36.8-4.8,73.4-10.3,109.9c-9,59.8-22.7,118.6-40.9,176.3c-17.2,49.4-36.8,97.8-59.2,145.1c-7.3,13.6-14.5,27.2-21.9,40.8
	c-21.4,39.1-46.3,76-71.1,113c-7.4,10-14.9,19.9-22.3,29.9c-10.8,13.2-21.6,26.4-32.4,39.5c-11.3,12.5-29.8,32.8-41.1,45.3
	c-12,11.9-23.9,23.8-35.9,35.8c-36.1,32.5-93.6,82.9-111.8,93.3S641.5,1062,599.5,1084.1z"/>
</svg>
