<?xml version="1.0" encoding="utf-8"?>
<!-- Generator: Adobe Illustrator 17.1.0, SVG Export Plug-In . SVG Version: 6.00 Build 0)  -->
<!DOCTYPE svg PUBLIC "-//W3C//DTD SVG 1.1//EN" "http://www.w3.org/Graphics/SVG/1.1/DTD/svg11.dtd">
<svg version="1.1" xmlns="http://www.w3.org/2000/svg" xmlns:xlink="http://www.w3.org/1999/xlink" x="0px" y="0px"
	 viewBox="0 0 1200 1200" enable-background="new 0 0 1200 1200" xml:space="preserve">
<g id="Слой_1">
</g>
<g id="Слой_2">
	<g>
		<path d="M430.2,809.3c-15.1,0-27.3-12.1-27.3-27v-67.6c0-14.9,12.2-27,27.3-27h34.3v-20.2h-34.3c-15.1,0-27.3-12.1-27.3-27v-67.6
			c0-14.9,12.2-27,27.3-27h34.3v-180c0,0-39.2-33.4-58.8-50.1c-13.5-11.5-21.3-11.5-34.9,0.2C287.1,387.4,203.5,459,119.6,530.4
			c-8,6.8-11.2,14.4-11.2,24.7c0.3,53.3,0,106.6,0,159.9c0,50.7-0.1,101.3,0.2,152c0.1,15.8,7.9,22.9,23.8,22.9
			c87.4,0,174.8,0,262.2,0c9.5,0,69.8,0,69.8,0v-80.6H430.2z M375.6,782.3c0,14.9-12.2,27-27.3,27h-68.3c-15.1,0-27.3-12.1-27.3-27
			v-67.6c0-14.9,12.2-27,27.3-27h68.3c15.1,0,27.3,12.1,27.3,27V782.3z M375.6,640.4c0,14.9-12.2,27-27.3,27h-68.3
			c-15.1,0-27.3-12.1-27.3-27v-67.6c0-14.9,12.2-27,27.3-27h68.3c15.1,0,27.3,12.1,27.3,27V640.4z"/>
		<path d="M388.3,272.4c-42,35.8-83.6,71.2-125.2,106.7c-63.8,54.3-127.7,108.7-191.6,163c-20.5,17.4-46.5,15.1-60.6-5.2
			c-10.8-15.3-10-35.6,3.9-48.5c19-17.7,39.1-34.3,58.9-51.1c78.6-66.9,157.2-133.8,235.8-200.7c16.8-14.3,33.5-28.6,50.4-42.8
			c19.4-16.3,38.3-16.4,57.5-0.1c15.6,13.3,46.8,39.8,46.8,39.8v101c0,0-49.1-39.7-71.9-59.1C391,274.5,390,273.7,388.3,272.4z"/>
		<g>
			<path d="M484.2,397.5c69,0,138,0,207.4,0c0,49.4,0,98.6,0,148.3c-69.2,0-138.3,0-207.4,0C484.2,496.4,484.2,447,484.2,397.5z"/>
			<path d="M484.2,590c11.5-0.1,23.1-0.3,34.6-0.3c56,0,112,0,168.1,0c1.6,0,3.1,0.1,4.9,0.2c0,49.4,0,98.5,0,148.1
				c-1.9,0-3.6,0-5.3,0c-65.6,0-131.2,0-196.7,0c-1.8,0-3.7,0.2-5.5,0.3C484.2,688.8,484.2,639.4,484.2,590z"/>
			<path d="M484.2,232.7c0.3-0.6,0.6-1.1,0.8-1.7c3.9-10.9,11.8-16.6,23.4-16.6c20.2-0.1,40.3,0,60.5,0c32.1,0,64.2,0,96.4,0
				c17.4,0,26.6,9,26.6,26.2c0,35.9,0,71.8,0,107.6c0,1.6,0,3.1,0,5.2c-1.9,0.1-3.5,0.3-5.2,0.3c-45,0-90,0-135,0
				c-21,0-41.9,0-62.9,0c-1.6,0-3.2-0.1-4.8-0.2C484.2,313.1,484.2,272.9,484.2,232.7z"/>
			<path d="M484.2,781.6c31.7,0,63.4,0.1,95.1,0.1c36.1,0,72.2,0,108.3,0c1.3,0,2.6,0.1,4.4,0.2c0,1.8,0,3.3,0,4.8
				c0,36.4,0,72.8,0,109.2c0,15.6-9.5,25-25.3,25c-51.2,0-102.5-0.2-153.7,0.2c-14.5,0.1-24.4-4.8-28.8-18.8
				C484.2,862.1,484.2,821.9,484.2,781.6z M588,872.4c11.8,0,21.3-9.3,21.4-20.9c0.1-11.8-9.5-21.2-21.5-21.2
				c-11.8,0.1-21.1,9.4-21.1,21.1C566.8,863.1,576.2,872.4,588,872.4z"/>
			<path d="M1201.2,551.3c-1.8,8.5-7.8,13.9-14.3,19c-26.2,20.6-52.2,41.4-78.3,62.1c-0.8,0.7-1.7,1.2-3,2.2
				c-41-50.7-82-101.2-123.1-152c1.2-1.1,2-1.9,2.9-2.6c27.6-21.9,55.1-43.7,82.7-65.5c11.4-9,24.1-7.7,33.2,3.5
				c31.3,38.6,62.7,77.2,93.8,116c2.7,3.4,4.1,7.8,6.1,11.7C1201.2,547.6,1201.2,549.5,1201.2,551.3z"/>
			<path d="M919.6,487.5c-23.4,41.2-46.4,81.8-69.6,122.7c-6-3.3-11.7-6.4-17.3-9.5c-37-20.6-74-41.2-111.1-61.7
				c-2.5-1.4-3.2-2.9-3.2-5.5c0.1-28.8,0-57.5,0.1-86.3c0-2.1,0.6-4.4,1.6-6.3c8.4-15.2,17-30.3,25.6-45.4c0.6-1,1.2-2,2.1-3.4
				C805,423.9,862.1,455.6,919.6,487.5z"/>
			<path d="M768.2,356.1c3.3-5.9,6.5-11.5,9.6-17.1c14.9-26.2,29.7-52.5,44.6-78.7c6.5-11.4,19.4-14.9,31.2-8.4
				c32.6,18.1,65.2,36.3,97.9,54.4c11.3,6.3,22.7,12.5,34,18.9c11.6,6.5,15.3,19,8.9,30.4c-17.6,31.3-35.4,62.5-53.2,93.8
				c-0.3,0.6-0.7,1.1-1.3,2C882.7,419.7,825.6,388,768.2,356.1z"/>
			<path d="M949.7,508.3c41.2,50.9,82.2,101.4,123.3,152.2c-37,29.4-73.8,58.6-110.8,88c-1-1.1-1.9-2-2.7-3
				c-30.2-37.3-60.4-74.7-90.8-111.9c-2-2.4-2.2-4.1-0.6-6.8c17.8-31.1,35.4-62.3,53.1-93.4c1.5-2.7,3.7-5.1,6-7.1
				C934.5,520.2,942,514.5,949.7,508.3z"/>
			<path d="M844.3,669.2c28.6,35.3,56.7,70,85.2,105.2c-37,29.3-73.8,58.5-110.7,87.9c-0.6-0.5-1.2-0.9-1.6-1.4
				c-15.2-18.7-30.4-37.5-45.6-56.2c-1.8-2.2-2.1-3.9-0.6-6.5c23.5-41.2,46.8-82.4,70.2-123.7C842,672.9,843,671.4,844.3,669.2z"/>
			<path d="M718.4,584.5c37.5,20.8,74.1,41.2,111.1,61.8c-23.3,41-46.3,81.7-69.6,122.8c-3.4-1.9-6.5-3.7-9.6-5.4
				c-9.7-5.4-19.4-10.8-29.2-16.1c-2-1.1-2.7-2.4-2.7-4.6c0.1-34.4,0.1-68.8,0.1-103.3c0-15.9,0-31.8,0-47.7
				C718.4,589.8,718.4,587.6,718.4,584.5z"/>
			<path d="M653.8,936.4c11.4,0,21.6,0.1,31.8,0c15.1-0.2,26.3-7.1,34-19.8c3.5-5.9,5.5-12.5,4.7-19.2c-1.4-12.1,2.1-22.5,8.7-32.5
				c5.1-7.6,9.2-15.9,14.1-24.6c13.1,16.1,25.8,31.8,38.8,47.9c-1.9,1.6-3.6,3-5.3,4.4c-26.8,21.3-53.6,42.5-80.5,63.8
				c-11.4,9-24.1,7.5-33.2-3.6C662.8,947.6,658.7,942.5,653.8,936.4z"/>
			<path d="M739.5,805c-6.9,12.2-13.5,23.9-20.8,36.7c0-16.6,0-32.1,0-48.2C725.7,797.4,732.3,801,739.5,805z"/>
		</g>
	</g>
</g>
</svg>
