<?xml version="1.0" encoding="utf-8"?>
<!-- Generator: Adobe Illustrator 17.1.0, SVG Export Plug-In . SVG Version: 6.00 Build 0)  -->
<!DOCTYPE svg PUBLIC "-//W3C//DTD SVG 1.1//EN" "http://www.w3.org/Graphics/SVG/1.1/DTD/svg11.dtd">
<svg version="1.1" id="Слой_1" xmlns="http://www.w3.org/2000/svg" xmlns:xlink="http://www.w3.org/1999/xlink" x="0px" y="0px"
	 viewBox="0 0 1200 1200" enable-background="new 0 0 1200 1200" xml:space="preserve">
<g>
	<path d="M637.1,19c5.1,1,10.1,2.2,15.2,2.9c26.7,3.8,50.5,15.3,72.1,30.5c20.7,14.5,34.8,34.5,40.9,59.5c0.6,2.3,1.2,4.7,2.1,7.9
		c15,0,29.9-0.1,44.9,0c14.8,0.1,19.5,4.8,19.5,19.4c0.1,23.3,0,46.7,0,71.4c4.4,0,8.2,0,11.9,0c22.7,0,45.3-0.1,68,0.1
		c13.7,0.1,17.9,4.5,18.5,18.2c0.1,2.8,0,5.6,0,8.4c0,265.4,0,530.8,0,796.2c0,4.2,0.2,8.4-0.4,12.5c-1.2,8.7-6,13.9-15.4,13.6
		c-2.8-0.1-5.6,0-8.4,0c-190.1,0-380.1,0-570.2,0c-20.3,0-23.8-3.4-23.8-23.5c0-267.1,0-534.3,0-801.4c0-21.5,2.6-24.1,24.1-24.1
		c22,0,43.9,0,65.9,0c3.7,0,7.5,0,12.5,0c0-11.3,0-21.3,0-31.3c0-13.3-0.1-26.5,0-39.8c0.1-15.2,4.7-19.6,20.2-19.7
		c12.2-0.1,24.4-0.2,36.6,0c5.2,0.1,7.6-1.2,9-7.1c8.1-32.1,28.1-55,56.8-70.9c20.8-11.5,42.8-19.5,66.3-22.9
		C614.8,19,626,19,637.1,19z M340.3,1029.1c187.7,0,374.5,0,561.4,0c0-263,0-525.4,0-788.3c-12.4,0-23.9,0-35.3,0
		c-11.3,0-22.7,0-34.4,0c0,15,0,28.2,0,41.4c0,19.5-3.9,23.4-23.1,23.4c-123.5,0-246.9,0-370.4,0c-20.1,0-23.7-3.6-23.8-23.8
		c0-13.5,0-27,0-40.2c-25.7,0-49.9,0-74.4,0C340.3,504.3,340.3,766.2,340.3,1029.1z M443.1,272.4c120.4,0,240.2,0,360.1,0
		c0-41,0-81.2,0-121.2c-120.7,0-240.4,0-360.1,0C443.1,192.1,443.1,232.1,443.1,272.4z"/>
	<path d="M967,1119.6c0-307.6,0-614.7,0-922.9c-4.3,0-8.1,0-11.8,0c-27.2,0-54.5-0.9-81.6,0.3c-18.1,0.8-31.1-16.9-30.9-31
		c0.2-16.5,10.7-32.7,30.3-32.2c39.4,1,78.8,0.3,118.2,0.3c17.2,0,30.8,12.6,32.4,29.7c0.3,3.1,0.2,6.3,0.2,9.4c0,323,0,646-0.1,969
		c0,7.2-0.3,15.1-3,21.5c-5.6,12.8-16.8,17.1-30.7,17.1c-143.4-0.2-286.7-0.1-430.1-0.1c-101.2,0-202.3-0.5-303.5,0.4
		c-27.7,0.2-39.7-12.4-39.7-39.5c0.4-212.4,0.2-424.9,0.2-637.3c0-110.9,0.1-221.8-0.1-332.8c0-11.7,1.9-22.7,12.2-29.4
		c5.7-3.7,12.6-7.5,19.1-7.6c36.6-0.7,73.2-0.3,109.9-0.4c15.3,0,19.8,3.1,27.3,17.9c5.8,11.5,2.1,27.4-6.4,36
		c-5.9,5.9-12.5,9-21.1,8.8c-24.1-0.4-48.1-0.1-72.2-0.1c-3.7,0-7.5,0-11.8,0c0,308.2,0,615.3,0,922.9
		C505,1119.6,735.7,1119.6,967,1119.6z"/>
	<path d="M635,663.8c40.4,0,80.9,0,121.3,0c6.8,0,13.5,0.4,10.8,10c-0.7,2.5-4,4.8-6.7,6.2c-2,1-4.8,0.3-7.2,0.3
		c-78.4,0-156.9,0-235.3,0c-1.7,0-3.5-0.1-5.2,0c-6.4,0.6-10-2.2-10.1-8.8c0-6.8,4.6-7.6,10-7.6c28.9,0,57.9,0,86.8,0
		C611.3,663.8,623.1,663.8,635,663.8z"/>
	<path d="M635,770.6c-40.1,0-80.1,0-120.2,0c-5,0-11.7,1.6-11.9-6.3c-0.2-7.5,5.4-9.8,12-9.8c80.1,0,160.3,0,240.4,0
		c1.7,0,4.2-0.5,5.1,0.5c2.8,3,5.1,6.5,7.6,9.9c-3.2,1.9-6.4,5.5-9.6,5.5c-27.5,0.4-55,0.3-82.6,0.3
		C662.2,770.6,648.6,770.6,635,770.6z"/>
	<path d="M636.3,496.5c-40.8,0-81.6,0.2-122.3-0.3c-3.8,0-7.5-3.8-11.3-5.8c2.2-3.2,4-7,6.9-9.4c1.7-1.4,5.4-0.4,8.2-0.4
		c78.4,0,156.8,0,235.2,0c3.1,0,6.9-0.8,9.2,0.6c2.7,1.6,5.4,5.3,5.5,8.2c0.1,2.2-3.4,5.6-6.1,6.6c-3,1.2-6.9,0.4-10.3,0.4
		C713,496.6,674.6,496.6,636.3,496.5z"/>
	<path d="M635,389.8c39.4,0,78.8,0,118.2,0c2.8,0,6-0.8,8.2,0.4c2.7,1.4,6.2,4.4,6.2,6.8c0,2.3-3.6,5.1-6.1,6.8
		c-1.5,1-4.1,0.3-6.2,0.3c-79.9,0-159.7,0-239.6,0c-2.4,0-5.3,0.7-7.2-0.4c-2.4-1.3-5.7-4.2-5.5-6.1c0.3-2.7,2.9-5.9,5.5-7.2
		c2.5-1.3,6.1-0.5,9.3-0.5C556.9,389.8,595.9,389.8,635,389.8z"/>
	<path d="M636.1,573.5c39,0,78.1,0,117.1,0c2.4,0,5.3-0.8,7.2,0.2c2.9,1.6,5.1,4.4,7.7,6.7c-2.5,2.3-4.7,5.2-7.7,6.8
		c-1.9,1-4.8,0.3-7.2,0.3c-78.4,0-156.9,0-235.3,0c-1.7,0-3.5,0-5.2,0c-5.1-0.2-11-0.8-9.5-7.5c0.6-2.7,6.2-6.1,9.5-6.2
		C553.8,573.3,594.9,573.5,636.1,573.5z"/>
	<path d="M635,847.4c39.7,0,79.5,0,119.2,0c3.1,0,6.6-0.5,9.3,0.7c2,0.9,4.2,4,4.3,6.1c0,2.1-2.2,5.1-4.2,6.1
		c-2.3,1.2-5.4,0.8-8.2,0.8c-80.2,0-160.3,0-240.5,0c-2.1,0-4.7,0.6-6.1-0.4c-2.4-1.8-5.2-4.4-5.6-7c-0.2-1.7,3.1-4.8,5.5-5.9
		c2.3-1.1,5.5-0.4,8.3-0.4C556.3,847.4,595.6,847.4,635,847.4z"/>
	<path d="M406.3,665.7c-0.2-13.9,9.4-24.9,22.1-25.3c14.6-0.5,22.4,10.3,23.6,24.8c1.2,14-10.1,25.6-23.1,25.4
		C416.2,690.5,406.5,679.8,406.3,665.7z"/>
	<path d="M406.3,391.1c0.2-14.3,9.8-24.7,22.9-24.7c13.4,0,23.6,11.4,23.1,25.7c-0.5,13-11.8,24.8-23.6,24.5
		C416.4,416.3,406.1,404.5,406.3,391.1z"/>
	<path d="M428.9,873.6c-12.9-0.1-22.5-10.6-22.7-24.7c-0.1-14.4,10.1-25.6,23.1-25.4c12.7,0.2,22.6,10.9,22.9,24.8
		C452.5,862.7,442.3,873.7,428.9,873.6z"/>
	<path d="M406.2,574.7c-0.1-14.4,9.2-24.7,22.4-25c13.5-0.3,23.9,10.6,23.5,25.1c-0.3,10.6-10.4,25.4-23.1,25.1
		C417.7,599.7,406.3,587.3,406.2,574.7z"/>
	<path d="M429,507c-13.3-0.1-22.7-10.3-22.7-24.6c0-12.3,11.5-25.5,22.5-25.7c11.1-0.2,23.7,13.8,23.4,26
		C451.9,497,442.2,507.1,429,507z"/>
	<path d="M429,732.9c12.8-0.1,23.5,11.2,23.3,24.5c-0.2,13.2-10.3,23.5-23,23.6c-12.8,0.1-22.8-10-23-23.3
		C406,743.9,416,733,429,732.9z"/>
</g>
</svg>
