<?xml version="1.0" encoding="utf-8"?>
<!-- Generator: Adobe Illustrator 17.1.0, SVG Export Plug-In . SVG Version: 6.00 Build 0)  -->
<!DOCTYPE svg PUBLIC "-//W3C//DTD SVG 1.1//EN" "http://www.w3.org/Graphics/SVG/1.1/DTD/svg11.dtd">
<svg version="1.1" xmlns="http://www.w3.org/2000/svg" xmlns:xlink="http://www.w3.org/1999/xlink" x="0px" y="0px"
	 viewBox="0 0 1200 1200" enable-background="new 0 0 1200 1200" xml:space="preserve">
<g id="Слой_1">
</g>
<g id="Слой_2">
	<g>
		<path d="M1.9,283.7c4.8-15.5,7.6-31.9,14.7-46.3c28.3-57.1,75.5-86.2,139-86.4c200.6-0.5,401.2-0.2,601.8-0.2
			c2.5,0,4.9,0.4,10.1,0.8c-10.6,10.5-19.7,19.6-28.8,28.6c-35.4,34.5-70.8,69-106.2,103.5c-5.2,5.1-10.7,7.7-18.5,7.7
			c-152.4-0.3-304.7-0.2-457.1-0.2c-13.6,0-13.6,0-13.6,13.5c0,247.6,0,495.1,0,742.7c0,12.7,0,12.7,12.5,12.7
			c248.2,0,496.4-0.1,744.6,0.2c10,0,12.1-3,12.1-12.4c-0.3-154-0.2-307.9-0.4-461.9c0-8.2,2-14.3,8.1-20.1
			c41.9-40.7,83.4-81.9,125-122.8c1.8-1.7,3.8-3.1,7.3-6c0.3,4.8,0.6,8.1,0.6,11.3c0,198.7-0.1,397.4,0.1,596.1
			c0,47.5-15.6,88.1-51.4,120.1c-21,18.8-45.8,29.7-73.3,35.2c-2.8,0.5-5.5,1.5-8.2,2.2c-262,0-524,0-785.9,0c-3.3-0.9-6.6-2-10-2.7
			c-56.9-12.6-95.4-46-114.7-101.1c-3.2-9.2-5.1-18.9-7.6-28.4C1.9,807.7,1.9,545.7,1.9,283.7z"/>
		<path d="M346.5,856.7c9.2-29.5,18-57.8,26.8-86c13-41.7,26.2-83.4,39-125.2c4.2-13.9,15.9-21.3,25.1-30.6
			c65.8-66.4,132-132.4,198.1-198.4c58-58,116.1-115.8,174.1-173.8c18.5-18.5,36.9-37.1,55.4-55.6c2-2,4.1-3.7,6-5.4
			c50.6,50.6,100.5,100.5,151.4,151.3c-11.7,11.8-23.4,23.8-35.3,35.7c-51.6,51.7-103.3,103.3-155,155
			c-47.6,47.6-95.3,95.1-142.9,142.6C650,705.5,610.8,744.8,571.5,784c-2.4,2.4-5.4,4.8-8.5,5.8C492.4,812,421.7,834,351.1,856
			C350.2,856.3,349.2,856.3,346.5,856.7z M517.1,668.7c130.3-128,260.1-255.6,390.8-384c-9.2-8.7-17.9-16.8-27.2-25.4
			c-129.5,127.3-259.5,255-390.3,383.6C499.8,651.9,508,659.9,517.1,668.7z"/>
		<path d="M1200.1,154c-16.3,15.7-32.9,31.8-48.8,47.2c-49-49.1-99-99.3-149.1-149.5c15.2-15,31.8-31.4,48.3-47.7
			C1099.8,53.5,1149.7,103.5,1200.1,154z"/>
		<path d="M1065.3,288.9c-50.6-50.5-100.6-100.5-150.8-150.7c16-15.8,32.3-31.9,48-47.3c49.8,50.1,100,100.6,150.1,151
			C1097.7,256.7,1081.2,273.1,1065.3,288.9z"/>
	</g>
</g>
</svg>
