<?xml version="1.0" encoding="utf-8"?>
<!-- Generator: Adobe Illustrator 17.1.0, SVG Export Plug-In . SVG Version: 6.00 Build 0)  -->
<!DOCTYPE svg PUBLIC "-//W3C//DTD SVG 1.1//EN" "http://www.w3.org/Graphics/SVG/1.1/DTD/svg11.dtd">
<svg version="1.1" id="Слой_2" xmlns="http://www.w3.org/2000/svg" xmlns:xlink="http://www.w3.org/1999/xlink" x="0px" y="0px"
	 viewBox="0 0 1200 1200" enable-background="new 0 0 1200 1200" xml:space="preserve">
<g>
	<path d="M591,1188.8c-22.6-6.5-45.7-11.6-67.6-19.8c-73.9-27.5-138.4-70-194.7-125.1c-73-71.5-123.9-157.1-158.7-252.6
		c-22-60.2-36.6-122.3-45.9-185.7c-9.6-65.4-13.4-131.2-13.2-197.2c0.1-57.2,1.1-114.4-0.3-171.5c-1.1-46.6,37.6-81.4,85-78.5
		c62.5,3.8,124.7-1.2,185.6-16.8c33.5-8.6,63-26.1,91.2-45.5c26.6-18.3,52.2-38,74.4-61.3c25.4-26.7,70.5-28.3,99-5.7
		c17.9,14.1,35.6,28.5,53.5,42.5c28.3,22,57.7,42.3,90,58c26.2,12.8,54.4,18.2,82.9,22.4c42,6.2,84.3,8.2,126.8,7.4
		c11.3-0.2,23-0.7,33.9,1.5c33.1,6.8,57.3,35.4,57.3,69.2c0.1,86.6,0.8,173.2-2,259.7c-2.9,91.6-18,181.6-46.1,269.1
		c-31,96.7-77.5,184.8-146.6,259.9c-72.9,79.2-160.3,135.7-264.6,164.7c-7.6,2.1-15.4,3.6-23.2,5.4
		C602.2,1188.8,596.6,1188.8,591,1188.8z M185.9,232.7c0,2.6,0,4.9,0,7.3c0,52.2,0.1,104.4,0,156.6c-0.1,63.6,2.5,127.1,11.5,190.2
		c8.3,58.3,21.3,115.4,41,170.9c29.4,82.7,71.6,157.8,132.6,221.5c56.2,58.7,122.2,102.3,199.5,128.6c19.2,6.5,37,6.8,56.3,0.3
		c91.8-30.8,167.2-85,228.9-158.9c47.9-57.4,82.4-122.4,107.2-192.7c34.1-96.2,49.2-195.9,51.4-297.5c1.6-73.5,0.8-147.2,1.1-220.7
		c0-1.9-0.2-3.8-0.4-5.9c-1.7,0-2.6,0-3.6,0c-51.5,1.7-102.7-0.3-153.7-8.1c-34-5.2-67.5-12.6-99-27.1
		c-49.8-22.8-94.1-54-135.8-89.2c-8.1-6.8-15.9-13.9-23.9-20.9c-1.3,1.2-2.4,2.1-3.4,3.1c-27.7,26.5-57.3,50.4-89.2,71.6
		c-33.6,22.3-68.8,41.6-108.1,51.7c-53.1,13.6-107.4,18.5-162.1,19.4C219.7,232.9,203.3,232.7,185.9,232.7z"/>
	<path d="M541.5,662.8c14.2-13.8,28.2-27.5,42.2-41.2c82.4-80.5,164.7-161,247-241.5c15.6-15.3,35-19.5,53.3-11.7
		c29.7,12.7,37.1,49.9,14,73.1c-24.1,24.2-48.8,47.9-73.3,71.8C745.4,590.8,666,668.4,586.7,746c-2.4,2.4-4.6,5-6.6,7.7
		c-18.9,25.6-59,25.4-77.6-0.3c-1.9-2.6-3.9-5-6.2-7.3C442,693,387.7,639.9,333.3,586.8c-13.4-13-18.5-28.5-13-46.4
		c5.5-17.8,18.3-28.3,36.6-31.3c16.4-2.7,30.2,2.9,41.9,14.5c24.1,23.7,48.3,47.3,72.4,70.9c22,21.5,44,43.1,66,64.6
		C538.5,660.3,539.9,661.4,541.5,662.8z"/>
</g>
</svg>
