<?xml version="1.0" encoding="utf-8"?>
<!-- Generator: Adobe Illustrator 17.1.0, SVG Export Plug-In . SVG Version: 6.00 Build 0)  -->
<!DOCTYPE svg PUBLIC "-//W3C//DTD SVG 1.1//EN" "http://www.w3.org/Graphics/SVG/1.1/DTD/svg11.dtd">
<svg version="1.1" id="Слой_1" xmlns="http://www.w3.org/2000/svg" xmlns:xlink="http://www.w3.org/1999/xlink" x="0px" y="0px"
	 viewBox="0 0 1200 1200" enable-background="new 0 0 1200 1200" xml:space="preserve">
<path d="M813.9,847.1c-111.4,97.4-241,140.5-388.8,121.8c-148.2-18.8-264.9-93.2-345.6-217.2c-128.6-197.6-95.2-452,68.3-611.7
	C336.5-44.2,626.4-35.7,807.1,121.4c183.9,160,239.1,472,39.4,693.6c0.5,0.7,1.1,1.9,1.5,1.9c24.9-3.8,41.2,9.2,57.8,26
	c66.3,67.6,133.7,134.1,200.7,200.9c26.6,26.5,53.2,53,79.7,79.6c15.2,15.3,15.5,29.6,0.9,45.2c-5.9,6.3-11.7,12.8-18.1,18.5
	c-15.9,14.2-30.5,13.9-45.6-1.2c-49-48.8-98-97.7-146.9-146.6c-46.1-46-91.8-92.3-138.4-137.8c-13.8-13.5-23.7-27.4-21-47.6
	C817.2,851.9,817.4,849.5,813.9,847.1z M898.1,487.1c-0.5-227-184.6-410.8-411-410.5C260.1,76.9,76,261.4,76.7,487.7
	c0.4,114,41,212.4,121.8,291.7c94.8,93.1,210,130,342.7,115.1C723.5,873.9,898.4,711.1,898.1,487.1z"/>
</svg>
