<?xml version="1.0" encoding="utf-8"?>
<!-- Generator: Adobe Illustrator 17.1.0, SVG Export Plug-In . SVG Version: 6.00 Build 0)  -->
<!DOCTYPE svg PUBLIC "-//W3C//DTD SVG 1.1//EN" "http://www.w3.org/Graphics/SVG/1.1/DTD/svg11.dtd">
<svg version="1.1" id="Слой_1" xmlns="http://www.w3.org/2000/svg" xmlns:xlink="http://www.w3.org/1999/xlink" x="0px" y="0px"
	 viewBox="0 0 1200 1200" enable-background="new 0 0 1200 1200" xml:space="preserve">
<g>
	<path d="M10.4,575.8c7.1-21.6,24.1-31.4,43.9-40.1C419,376.3,783.4,216.5,1147.9,56.7c11-4.8,22.1-8.7,32.4,0
		c10.1,8.6,10.6,20,8.1,32.6c-51.6,259.1-102.9,518.3-154.3,777.4c-14.7,74.1-30.4,148-43.7,222.4c-7.7,43.5-56.2,54.1-84.8,29.1
		c-91.3-79.9-183.7-158.6-275.6-237.7c-3.2-2.7-6.4-5.4-10.1-8.6c-2.9,4.1-5.4,7.5-7.8,10.9c-42.1,60.9-84.3,121.9-126.4,182.8
		c-15.5,22.4-36.4,34.2-64,29.5c-32.8-5.6-51.5-29.1-51.6-63.4c-0.2-81.8-0.1-163.6-0.1-245.4c0-14.6,0-29.1,0-44.3
		c-40.5-13.4-80.5-26.5-120.5-39.7c-64.1-21.1-128-42.7-192.3-63.1c-23.7-7.5-40.8-20.1-46.9-45.1C10.4,588,10.4,581.9,10.4,575.8z
		 M1044.7,158.1c-0.5-0.6-1.1-1.3-1.6-1.9C715.7,299.3,388.3,442.5,58.6,586.6c6.6,2.3,10.8,3.9,15.1,5.3
		c106.5,35.6,213,71.3,319.4,106.9c22.6,7.6,25.8,11.9,25.8,35.7c0,96.4,0,192.8,0,289.1c0,3.5-1,7.4,0.3,10.2
		c2.3,4.7,5.4,10.6,9.5,12.2c3.5,1.3,9.4-2.2,13.6-4.8c2.7-1.7,4.1-5.4,6.1-8.3c50.2-72.6,99.1-146.1,150.9-217.6
		C734,629.6,870,444.7,1005.4,259.4c2.2-3,4.1-6,6.2-9.1c-3.1,0.3-5.2,1.6-7.1,3.2C900.7,338.8,796.8,424.1,693,509.4
		c-33.5,27.5-67,55.1-100.7,82.5c-8.6,7-20.7,7.4-28.9,1.6c-8.2-5.7-12.8-18.4-8.4-27.6c2.7-5.6,7.3-10.8,12.2-14.9
		c126.2-104,252.6-207.8,378.9-311.7C979,212.3,1011.9,185.2,1044.7,158.1z M1116.6,195.7c-0.7-0.3-1.5-0.6-2.2-0.9
		C959,407,803.5,619.1,647.9,831.5c98.1,84.2,195.1,167.4,293.6,252C1000.1,786.4,1058.4,491,1116.6,195.7z"/>
	<path d="M540,627.5c-5.1,7.9-7.9,15-12.9,19.5c-11.8,10.8-24.5,20.8-37.3,30.5c-10.4,7.9-24.6,7.8-33.1,0.4
		c-8.2-7.3-11.2-16.4-6.8-26.9c1.4-3.4,3.6-6.9,6.4-9.3c12.8-10.9,25.6-21.9,39.1-32c8.9-6.6,19.9-8.2,29-1.8
		C530.8,612.3,534.5,620.2,540,627.5z"/>
</g>
</svg>
