<?xml version="1.0" encoding="utf-8"?>
<!-- Generator: Adobe Illustrator 17.1.0, SVG Export Plug-In . SVG Version: 6.00 Build 0)  -->
<!DOCTYPE svg PUBLIC "-//W3C//DTD SVG 1.1//EN" "http://www.w3.org/Graphics/SVG/1.1/DTD/svg11.dtd">
<svg version="1.1" id="Слой_3" xmlns="http://www.w3.org/2000/svg" xmlns:xlink="http://www.w3.org/1999/xlink" x="0px" y="0px"
	 viewBox="0 0 1200 1200" enable-background="new 0 0 1200 1200" xml:space="preserve">
<path d="M1146.7,6c14.2,72,28,141.4,42.3,213.8c-200.8,39.9-400,79.5-599.2,119.1c0.2,1.5,0.3,2.9,0.5,4.4c200.9,0,401.8,0,606.2,0
	c0,14.6,0,27.4,0,40.1c-0.1,213.9,0.2,427.9-0.3,641.8c-0.2,98.5-74.1,171.4-172.3,171.4c-281.7,0.1-563.4,0.1-845.1,0
	c-98.1-0.1-173.1-73.8-173.2-171.2C5.1,792.6,5.3,559.9,5.5,327.2c0-60.3,37.4-102.5,99.6-114.8c162.3-32,324.6-64.1,486.9-96.3
	C775.9,79.7,959.7,43.1,1146.7,6z M1081.6,620.6c-322.1,0-640.2,0-959.7,0c0,10.8,0,19.7,0,28.6c0,120.9,0,241.8,0,362.7
	c0,49.2,18.5,67.8,68.1,67.8c274.5,0,548.9,0.1,823.4,0c48.6,0,68-19.5,68.1-68.4c0.2-70.2,0.2-140.5,0.2-210.7
	C1081.6,741.1,1081.6,681.6,1081.6,620.6z M564.3,181.9c39.5,26.5,74,49.6,108.5,72.5c3.9,2.6,9.2,5.9,13.2,5.2
	c45.8-8.7,91.5-18,142.6-28.3c-40.3-26.8-75.3-50.5-110.8-73.5c-4.3-2.8-10.9-4.3-15.9-3.4C658.1,162.7,614.4,171.8,564.3,181.9z
	 M1121.1,173.1c-40.1-26.8-74.5-49.9-109.2-72.5c-4.4-2.9-10.8-5.3-15.6-4.4c-44.6,8.4-89,17.6-139.1,27.6
	c40.8,27.4,77,51.8,113.3,75.9c2.5,1.6,6.4,2.4,9.3,1.9C1025,192.6,1070.2,183.4,1121.1,173.1z M536,289.7
	c-40.1-26.8-74.5-49.9-109.2-72.6c-4.4-2.9-10.8-5.5-15.6-4.6c-45,8.4-89.9,17.5-140,27.5c40.3,27,75.9,51,111.8,74.5
	c3.6,2.4,9.3,3.5,13.6,2.7C441.3,308.6,485.9,299.6,536,289.7z M1140.9,402.1c-38.5,0-69.6,2.5-100-0.6c-36.5-3.8-63.8,6.4-87,35.3
	c-17.8,22.1-39.8,40.8-63.8,64.9c51,0,95,0.3,139-0.4c6.5-0.1,14.3-3.7,19-8.2C1077.6,465,1106.4,436.2,1140.9,402.1z M837.4,408.2
	c-1.2-2-2.4-4-3.6-6c-43.9,0-87.9-0.2-131.8,0.2c-5.3,0-12,1.4-15.6,4.8c-30.7,29.6-60.8,59.8-95.6,94.4c52.5,0,97.8,0.1,143.1-0.2
	c4.3,0,9.7-2.4,12.8-5.4C777.2,466.9,807.2,437.5,837.4,408.2z M296,495.6c1.3,2,2.6,4,4,6.1c44,0,88,0.2,132-0.2
	c5.2,0,11.9-1.4,15.4-4.8c31-29.4,61.4-59.4,92-89.2c-48.6-5.3-94-5.5-139.3-5.1c-4.4,0-9.7,2.4-12.9,5.5
	C356.6,436.9,326.3,466.3,296,495.6z"/>
<path d="M534.4,999.4c0-107.5,0-209.4,0-316.1c86.7,53.2,170.8,104.8,257.7,158C705.5,894.4,621.8,945.7,534.4,999.4z"/>
</svg>
